<?xml version="1.0" encoding="UTF-8" standalone="no"?>
<svg xmlns:ffdec="https://www.free-decompiler.com/flash" xmlns:xlink="http://www.w3.org/1999/xlink" ffdec:objectType="frame" xmlns="http://www.w3.org/2000/svg" width="512" height="512" viewBox="68.534824766 -11.161360667 61.848663361 61.848663361" preserveAspectRatio="xMidYMid meet">
  <g transform="matrix(1.0, 0.0, 0.0, 1.0, 77.75, -21.15)">
    <filter id="filter0">
      <feColorMatrix in="SourceGraphic" result="filterResult0" type="matrix" values="1.0 0.0 0.0 0.0 0.0 0.0 1.0 0.0 0.0 0.0 0.0 0.0 1.0 0.0 0.0 0.0 0.0 0.0 1.0 0.0"/>
    </filter>
    <use ffdec:characterId="1773" filter="url(#filter0)" height="173.35" transform="matrix(0.3196, 0.0, 0.0, 0.1301, -12.1602, 46.218)" width="173.35" xlink:href="#sprite0"/>
    <use ffdec:characterId="1774" height="21.7" transform="matrix(-0.4456, 0.0871, 0.0871, 0.4456, 2.5869, 28.9503)" width="23.4" xlink:href="#shape1"/>
    <use ffdec:characterId="1774" height="21.7" transform="matrix(-0.4113, 0.1323, 0.1323, 0.4113, -4.6292, 27.365)" width="23.4" xlink:href="#shape1"/>
    <use ffdec:characterId="1774" height="21.7" transform="matrix(-0.3749, 0.2132, 0.2132, 0.3749, -12.6674, 26.4379)" width="23.4" xlink:href="#shape1"/>
    <use ffdec:characterId="1774" height="21.7" transform="matrix(-0.3276, 0.2528, 0.2528, 0.3276, -19.696, 27.0165)" width="23.4" xlink:href="#shape1"/>
    <use ffdec:characterId="1774" height="21.7" transform="matrix(-0.2909, 0.2501, 0.2501, 0.2909, -26.0885, 28.59)" width="23.4" xlink:href="#shape1"/>
    <use ffdec:characterId="1774" height="21.7" transform="matrix(-0.2983, 0.1496, 0.1496, 0.2983, -31.7244, 30.0564)" width="23.4" xlink:href="#shape1"/>
    <use ffdec:characterId="1774" height="21.7" transform="matrix(-0.3097, 0.0466, 0.0466, 0.3097, -36.154, 29.8238)" width="23.4" xlink:href="#shape1"/>
    <use ffdec:characterId="1774" height="21.7" transform="matrix(-0.278, 0.0148, 0.0148, 0.278, -41.4246, 28.0293)" width="23.4" xlink:href="#shape1"/>
    <use ffdec:characterId="1774" height="21.7" transform="matrix(-0.221, 0.079, 0.079, 0.221, -47.0782, 26.2836)" width="23.4" xlink:href="#shape1"/>
    <use ffdec:characterId="1774" height="21.7" transform="matrix(-0.1736, 0.1429, 0.142, 0.1726, -52.3697, 26.0336)" width="23.4" xlink:href="#shape1"/>
    <use ffdec:characterId="1774" height="21.7" transform="matrix(-0.1327, 0.1399, 0.1391, 0.1319, -56.6172, 27.3595)" width="23.4" xlink:href="#shape1"/>
    <use ffdec:characterId="1775" height="35.55" transform="matrix(-0.1849, 0.0361, 0.0361, 0.1849, -57.7222, 29.0954)" width="108.3" xlink:href="#shape2"/>
    <use ffdec:characterId="1776" height="29.6" transform="matrix(0.2298, -0.3734, 0.3734, 0.2298, 23.4351, 38.7367)" width="8.7" xlink:href="#shape3"/>
    <use ffdec:characterId="1777" height="19.6" transform="matrix(-0.0109, -0.4387, 0.4387, -0.0109, 18.7861, 44.3748)" width="17.5" xlink:href="#shape4"/>
    <use ffdec:characterId="1778" height="44.85" transform="matrix(0.3222, -0.2966, 0.2966, 0.3222, 31.5067, 43.2224)" width="24.5" xlink:href="#shape5"/>
    <use ffdec:characterId="1776" height="29.6" transform="matrix(0.0744, -0.4325, 0.4325, 0.0744, 28.8128, 41.7163)" width="8.7" xlink:href="#shape3"/>
    <use ffdec:characterId="1777" height="19.6" transform="matrix(0.0744, -0.4325, 0.4325, 0.0744, 21.5966, 44.1791)" width="17.5" xlink:href="#shape4"/>
    <use ffdec:characterId="1778" height="44.85" transform="matrix(0.0744, -0.4325, 0.4325, 0.0744, 39.6503, 43.6074)" width="24.5" xlink:href="#shape5"/>
    <use ffdec:characterId="1776" height="29.6" transform="matrix(0.2694, -0.3467, 0.3467, 0.2694, 30.0153, 41.6233)" width="8.7" xlink:href="#shape3"/>
    <use ffdec:characterId="1777" height="19.6" transform="matrix(0.0975, -0.4286, 0.4286, 0.0975, 24.3369, 45.3156)" width="17.5" xlink:href="#shape4"/>
    <use ffdec:characterId="1778" height="44.85" transform="matrix(0.2694, -0.3467, 0.3467, 0.2694, 38.7554, 48.3713)" width="24.5" xlink:href="#shape5"/>
    <use ffdec:characterId="1777" height="19.6" transform="matrix(0.2611, -0.3541, 0.3541, 0.2611, 29.4924, 46.3965)" width="17.5" xlink:href="#shape4"/>
    <use ffdec:characterId="1776" height="29.6" transform="matrix(0.1621, -0.4085, 0.4085, 0.1621, 37.419, 47.5542)" width="8.7" xlink:href="#shape3"/>
    <use ffdec:characterId="1778" height="44.85" transform="matrix(0.0774, -0.4318, 0.4318, 0.0774, 47.9993, 51.7556)" width="24.5" xlink:href="#shape5"/>
    <use ffdec:characterId="1779" height="79.5" transform="matrix(-0.4318, 0.1398, 0.1398, 0.4318, 32.346, 21.1642)" width="94.35" xlink:href="#shape6"/>
    <use ffdec:characterId="1776" height="29.6" transform="matrix(-0.3939, -0.1931, -0.1931, 0.3939, 11.247, 52.1965)" width="8.7" xlink:href="#shape3"/>
    <use ffdec:characterId="1777" height="19.6" transform="matrix(-0.3015, -0.3193, -0.3193, 0.3015, 18.8104, 51.4089)" width="17.5" xlink:href="#shape4"/>
    <use ffdec:characterId="1778" height="44.85" transform="matrix(-0.3939, -0.1931, -0.1931, 0.3939, 6.3738, 62.2899)" width="24.5" xlink:href="#shape5"/>
    <use ffdec:characterId="1776" height="29.6" transform="matrix(-0.2298, -0.3744, -0.3744, 0.2298, 14.5149, 54.0872)" width="8.7" xlink:href="#shape3"/>
    <use ffdec:characterId="1777" height="19.6" transform="matrix(-0.2845, -0.3349, -0.3349, 0.2845, 21.7597, 52.6252)" width="17.5" xlink:href="#shape4"/>
    <use ffdec:characterId="1778" height="44.85" transform="matrix(-0.125, -0.4211, -0.4211, 0.125, 4.7668, 60.427)" width="24.5" xlink:href="#shape5"/>
    <use ffdec:characterId="1776" height="29.6" transform="matrix(-0.431, 0.0901, 0.0901, 0.431, 21.6655, 56.255)" width="8.7" xlink:href="#shape3"/>
    <use ffdec:characterId="1777" height="19.6" transform="matrix(-0.431, 0.0901, 0.0901, 0.431, 24.0205, 49.0395)" width="17.5" xlink:href="#shape4"/>
    <use ffdec:characterId="1778" height="44.85" transform="matrix(-0.4386, 0.0364, 0.0364, 0.4386, 24.0792, 67.1643)" width="24.5" xlink:href="#shape5"/>
    <use ffdec:characterId="1776" height="29.6" transform="matrix(0.4129, -0.1533, 0.1533, 0.413, 30.2935, 56.2767)" width="8.7" xlink:href="#shape3"/>
    <use ffdec:characterId="1777" height="19.6" transform="matrix(0.3864, -0.2126, 0.2126, 0.3864, 23.8005, 52.9131)" width="17.5" xlink:href="#shape4"/>
    <use ffdec:characterId="1778" height="44.85" transform="matrix(0.3918, -0.1999, 0.1999, 0.3918, 34.1738, 66.7941)" width="24.5" xlink:href="#shape5"/>
  </g>
  <defs>
    <g id="sprite0" transform="matrix(1.0, 0.0, 0.0, 1.0, 86.7, 86.7)">
      <use ffdec:characterId="4" height="173.35" transform="matrix(1.0, 0.0, 0.0, 1.0, -86.7, -86.7)" width="173.35" xlink:href="#shape0"/>
    </g>
    <g id="shape0" transform="matrix(1.0, 0.0, 0.0, 1.0, 86.7, 86.7)">
      <path d="M-0.05 -86.7 Q35.9 -86.7 61.25 -61.35 86.65 -35.95 86.65 0.0 86.65 35.95 61.25 61.3 35.9 86.65 -0.05 86.65 -35.95 86.65 -61.35 61.3 -86.7 35.95 -86.7 0.0 -86.7 -35.95 -61.35 -61.35 -35.95 -86.7 -0.05 -86.7" fill="url(#gradient0)" fill-rule="evenodd" stroke="none"/>
    </g>
    <radialGradient cx="0" cy="0" gradientTransform="matrix(0.1066, 0.0, 0.0, 0.1066, -0.05, -0.05)" gradientUnits="userSpaceOnUse" id="gradient0" r="819.2" spreadMethod="pad">
      <stop offset="0.0" stop-color="#000000" stop-opacity="0.8"/>
      <stop offset="1.0" stop-color="#000000" stop-opacity="0.0"/>
    </radialGradient>
    <g id="shape1" transform="matrix(1.0, 0.0, 0.0, 1.0, 1.2, 0.55)">
      <path d="M10.7 9.3 Q11.05 8.25 11.05 6.65 11.0 4.75 9.15 4.75 7.2 4.75 6.3 6.65 5.75 7.75 5.75 8.8 L6.1 10.0 Q6.7 11.2 8.05 11.2 9.1 11.2 9.8 10.65 8.4 12.3 6.0 13.45 L6.1 17.35 Q6.1 18.5 5.45 19.45 L3.45 20.65 Q3.25 20.05 2.25 19.3 L2.65 17.85 2.85 16.25 3.05 14.85 3.15 9.45 Q3.15 7.2 3.45 6.9 L3.35 6.65 5.55 5.55 10.0 3.45 10.05 3.65 10.1 3.4 10.1 3.35 10.15 3.35 10.2 3.35 10.4 3.3 Q11.35 3.3 11.45 5.95 11.45 7.75 10.7 9.3 M7.0 4.0 Q5.6 5.45 4.05 5.45 L3.4 4.9 Q3.4 4.65 4.9 2.95 6.5 1.1 7.25 1.1 8.5 1.1 8.2 2.05 L7.9 2.9 7.9 2.5 Q7.9 2.0 7.45 2.0 L5.85 3.5 Q5.85 4.0 6.65 4.0 L7.0 4.0" fill="#705930" fill-rule="evenodd" stroke="none"/>
      <path d="M10.7 9.3 Q11.45 7.75 11.45 5.95 11.35 3.3 10.4 3.3 L10.2 3.35 12.4 2.15 15.5 0.35 Q17.4 -0.75 19.45 1.85 21.45 4.5 21.7 6.7 21.95 8.9 18.15 11.6 L12.95 15.0 9.45 17.1 6.5 18.9 5.45 19.45 Q6.1 18.5 6.1 17.35 L6.0 13.45 Q8.4 12.3 9.8 10.65 L10.7 9.3 M10.15 3.35 L10.1 3.35 10.1 3.4 10.05 3.65 10.0 3.45 5.55 5.55 3.35 6.65 3.45 6.9 Q3.15 7.2 3.15 9.45 L3.05 14.85 2.85 16.25 2.65 17.85 2.25 19.3 Q0.7 18.35 -0.65 14.75 -2.05 11.1 0.2 8.2 L1.4 7.6 Q3.25 4.65 4.4 3.15 6.6 0.5 9.6 -0.05 L10.15 3.35 M7.9 2.9 L8.2 2.05 Q8.5 1.1 7.25 1.1 6.5 1.1 4.9 2.95 3.4 4.65 3.4 4.9 L4.05 5.45 Q5.6 5.45 7.0 4.0 7.75 3.8 7.9 2.9 M1.4 7.6 L3.35 6.65 1.4 7.6 M10.0 3.45 L10.1 3.4 10.0 3.45" fill="#3b270e" fill-rule="evenodd" stroke="none"/>
      <path d="M9.8 10.65 Q9.1 11.2 8.05 11.2 6.7 11.2 6.1 10.0 L5.75 8.8 Q5.75 7.75 6.3 6.65 7.2 4.75 9.15 4.75 11.0 4.75 11.05 6.65 11.05 8.25 10.7 9.3 L9.8 10.65 M7.0 4.0 L6.65 4.0 Q5.85 4.0 5.85 3.5 L7.45 2.0 Q7.9 2.0 7.9 2.5 L7.9 2.9 Q7.75 3.8 7.0 4.0" fill="#b89b63" fill-rule="evenodd" stroke="none"/>
      <path d="M10.0 3.45 L5.55 5.55 3.35 6.65 1.4 7.6 0.2 8.2 M3.45 20.65 L5.45 19.45 6.5 18.9 9.45 17.1 12.95 15.0 18.15 11.6 M10.2 3.35 L12.4 2.15 15.5 0.35 M10.1 3.4 L10.0 3.45 M1.4 7.6 Q3.25 4.65 4.4 3.15 6.6 0.5 9.6 -0.05 L10.15 3.35" fill="none" stroke="#000000" stroke-linecap="round" stroke-linejoin="round" stroke-width="1.0"/>
      <path d="M15.5 0.35 Q17.4 -0.75 19.45 1.85 21.45 4.5 21.7 6.7 21.95 8.9 18.15 11.6" fill="none" stroke="#000000" stroke-linecap="round" stroke-linejoin="round" stroke-width="1.0"/>
    </g>
    <g id="shape2" transform="matrix(1.0, 0.0, 0.0, 1.0, 0.05, 23.0)">
      <path d="M0.85 -12.75 Q0.55 -13.3 0.0 -16.05 -0.55 -18.75 4.45 -19.65 9.35 -15.45 11.9 -15.45 14.1 -15.45 15.5 -18.9 16.8 -22.35 21.0 -22.5 25.0 -22.65 33.6 -14.15 43.65 -9.3 51.6 -8.4 L73.25 -7.0 96.25 -6.1 107.75 -7.0 Q102.6 -2.65 92.5 2.05 73.85 9.25 69.55 11.1 65.2 13.0 46.4 11.1 27.6 9.25 22.4 4.65 17.25 0.05 12.8 -7.7 12.35 -8.4 6.9 -10.6 L0.85 -12.75 M93.4 -4.55 L93.25 -4.7 86.5 -4.95 70.55 -4.7 67.25 -5.1 58.45 -5.55 46.85 -8.15 41.25 -9.7 32.35 -14.15 Q29.75 -16.45 25.3 -16.45 23.55 -16.45 22.85 -15.15 L22.85 -15.3 Q22.55 -15.15 22.55 -14.75 L22.55 -14.3 Q22.4 -14.0 22.4 -11.85 22.4 -4.95 27.85 -0.95 30.3 0.9 37.2 2.35 48.7 4.65 58.35 4.65 72.0 4.65 78.0 3.05 L85.75 0.5 Q99.85 -2.95 99.85 -4.95 L99.25 -5.7 98.55 -5.4 98.4 -5.4 94.7 -4.7 94.1 -4.55 93.8 -4.7 93.4 -4.55" fill="#38270b" fill-rule="evenodd" stroke="none"/>
      <path d="M93.4 -4.55 L93.8 -4.7 94.1 -4.55 94.55 -4.55 94.7 -4.4 94.7 -4.7 98.4 -5.4 98.55 -5.4 99.25 -5.7 99.85 -4.95 Q99.85 -2.95 85.75 0.5 L78.0 3.05 Q72.0 4.65 58.35 4.65 48.7 4.65 37.2 2.35 30.3 0.9 27.85 -0.95 22.4 -4.95 22.4 -11.85 22.4 -14.0 22.55 -14.3 L22.55 -14.75 Q22.55 -15.15 22.85 -15.3 L22.85 -15.15 Q26.3 -7.25 29.45 -5.4 35.5 -1.65 36.5 -1.4 43.4 0.5 60.35 0.65 L61.35 0.65 63.8 0.65 78.15 -0.1 83.35 -1.5 93.4 -4.55" fill="#b0955e" fill-rule="evenodd" stroke="none"/>
      <path d="M22.85 -15.15 Q23.55 -16.45 25.3 -16.45 29.75 -16.45 32.35 -14.15 L41.25 -9.7 46.85 -8.15 58.45 -5.55 67.25 -5.1 70.55 -4.7 86.5 -4.95 93.25 -4.7 93.4 -4.55 83.35 -1.5 78.15 -0.1 63.8 0.65 61.35 0.65 60.35 0.65 Q43.4 0.5 36.5 -1.4 35.5 -1.65 29.45 -5.4 26.3 -7.25 22.85 -15.15 M94.1 -4.55 L94.7 -4.7 94.7 -4.4 94.55 -4.55 94.1 -4.55" fill="#715830" fill-rule="evenodd" stroke="none"/>
      <path d="M4.45 -19.65 Q9.35 -15.45 11.9 -15.45 14.1 -15.45 15.5 -18.9 16.8 -22.35 21.0 -22.5 25.0 -22.65 33.6 -14.15 43.65 -9.3 51.6 -8.4 L73.25 -7.0 96.25 -6.1 107.75 -7.0 Q102.6 -2.65 92.5 2.05 73.85 9.25 69.55 11.1 65.2 13.0 46.4 11.1 27.6 9.25 22.4 4.65 17.25 0.05 12.8 -7.7 12.35 -8.4 6.9 -10.6 L0.85 -12.75" fill="none" stroke="#000000" stroke-linecap="round" stroke-linejoin="round" stroke-width="1.0"/>
    </g>
    <g id="shape3" transform="matrix(1.0, 0.0, 0.0, 1.0, 0.5, 0.0)">
      <path d="M8.0 2.15 L7.75 1.8 7.5 1.45 7.75 1.75 8.0 2.15 M2.45 0.6 L2.65 0.8 Q4.15 2.3 5.9 2.3 6.95 2.3 7.25 1.65 L7.7 1.95 Q5.6 21.45 5.6 23.4 L5.7 25.8 5.9 26.05 5.95 26.1 6.0 26.15 5.95 26.15 5.9 26.15 5.9 26.05 5.9 26.15 4.95 26.1 Q3.3 26.1 3.3 27.9 3.3 28.6 3.65 29.5 L2.9 29.6 Q0.95 29.6 0.1 28.5 L0.0 26.9 0.0 19.85 Q1.25 10.55 1.25 4.9 L1.2 3.45 Q0.75 2.55 2.45 0.6 M5.7 7.55 L5.55 7.5 Q6.85 7.4 6.85 6.85 6.75 5.65 5.9 5.65 4.75 5.65 4.75 6.35 4.75 7.5 5.7 7.55 M4.8 8.4 L4.85 8.75 5.5 9.1 Q6.2 9.1 6.2 8.65 6.2 7.9 5.5 7.9 4.8 7.9 4.8 8.4 M5.95 26.15 L5.95 26.1 5.95 26.15" fill="#3b270e" fill-rule="evenodd" stroke="none"/>
      <path d="M8.0 2.15 L7.7 1.95 7.25 1.65 Q6.95 2.3 5.9 2.3 4.15 2.3 2.65 0.8 L2.45 0.6 Q3.3 0.0 4.6 0.0 6.3 0.0 7.5 1.45 L7.75 1.8 8.0 2.15 M5.95 26.15 L6.05 26.4 Q6.2 27.2 5.75 27.95 5.35 28.0 5.35 28.3 L5.4 28.45 5.25 28.55 Q4.45 29.3 3.65 29.5 3.3 28.6 3.3 27.9 3.3 26.1 4.95 26.1 L5.9 26.15 5.95 26.15 M4.8 8.4 Q4.8 7.9 5.5 7.9 6.2 7.9 6.2 8.65 6.2 9.1 5.5 9.1 L4.85 8.75 4.8 8.4 M5.7 7.55 Q4.75 7.5 4.75 6.35 4.75 5.65 5.9 5.65 6.75 5.65 6.85 6.85 6.85 7.4 5.55 7.5 L5.7 7.55 M6.05 26.4 L5.9 26.15 6.05 26.4" fill="#715830" fill-rule="evenodd" stroke="none"/>
      <path d="M5.75 27.95 L5.4 28.45 5.35 28.3 Q5.35 28.0 5.75 27.95" fill="#b89b61" fill-rule="evenodd" stroke="none"/>
      <path d="M7.7 1.95 Q5.6 21.45 5.6 23.4 L5.7 25.8 5.9 26.05 5.95 26.1 6.0 26.15 M0.1 28.5 L0.0 26.9 0.0 19.85 Q1.25 10.55 1.25 4.9 L1.2 3.45" fill="none" stroke="#000000" stroke-linecap="round" stroke-linejoin="round" stroke-width="1.0"/>
      <path d="M5.9 26.05 L5.9 26.0 5.95 26.1 5.95 26.15 6.05 26.4 5.9 26.15 5.9 26.05 Z" fill="none" stroke="#000000" stroke-linecap="round" stroke-linejoin="round" stroke-width="1.0"/>
    </g>
    <g id="shape4" transform="matrix(1.0, 0.0, 0.0, 1.0, 0.5, 0.5)">
      <path d="M15.0 11.8 L11.85 7.95 8.85 4.2 Q5.8 0.8 4.85 0.8 3.0 0.8 3.0 2.9 3.0 3.95 3.35 4.65 L4.15 6.5 5.3 8.2 7.1 9.85 Q9.2 11.95 10.15 13.35 L11.45 15.0 Q12.95 16.5 14.7 16.5 16.15 16.5 16.15 15.3 16.15 13.4 15.0 11.8 M9.95 18.6 Q9.3 16.85 5.1 11.3 L0.05 4.85 Q-0.45 -0.75 5.2 0.1 7.65 1.7 12.05 7.3 L15.65 11.55 Q16.5 12.7 16.5 16.1 16.1 16.15 15.55 16.65 13.35 18.6 9.95 18.6" fill="#3b270e" fill-rule="evenodd" stroke="none"/>
      <path d="M15.0 11.8 Q16.15 13.4 16.15 15.3 16.15 16.5 14.7 16.5 12.95 16.5 11.45 15.0 L10.15 13.35 Q9.2 11.95 7.1 9.85 L5.3 8.2 4.15 6.5 3.35 4.65 Q3.0 3.95 3.0 2.9 3.0 0.8 4.85 0.8 5.8 0.8 8.85 4.2 L11.85 7.95 15.0 11.8 M13.05 12.45 Q12.45 12.45 12.45 13.05 L13.1 14.0 Q13.65 14.0 13.65 13.0 13.55 12.45 13.05 12.45 M12.25 11.05 L12.3 10.7 9.5 7.05 Q6.55 3.4 5.85 3.4 L5.25 3.75 Q5.95 4.25 8.85 7.9 11.45 11.15 11.95 11.15 L12.25 11.05" fill="#715830" fill-rule="evenodd" stroke="none"/>
      <path d="M12.25 11.05 L11.95 11.15 Q11.45 11.15 8.85 7.9 5.95 4.25 5.25 3.75 L5.85 3.4 Q6.55 3.4 9.5 7.05 L12.3 10.7 12.25 11.05 M13.05 12.45 Q13.55 12.45 13.65 13.0 13.65 14.0 13.1 14.0 L12.45 13.05 Q12.45 12.45 13.05 12.45" fill="#b89b61" fill-rule="evenodd" stroke="none"/>
      <path d="M9.95 18.6 Q9.3 16.85 5.1 11.3 L0.05 4.85 Q-0.45 -0.75 5.2 0.1 7.65 1.7 12.05 7.3 L15.65 11.55 Q16.5 12.7 16.5 16.1" fill="none" stroke="#000000" stroke-linecap="round" stroke-linejoin="round" stroke-width="1.0"/>
    </g>
    <g id="shape5" transform="matrix(1.0, 0.0, 0.0, 1.0, 0.45, 0.5)">
      <path d="M17.45 35.55 L17.4 35.6 Q16.15 38.3 14.0 43.85 L12.75 36.45 Q12.45 34.35 12.9 32.4 13.3 30.45 13.3 27.45 13.3 21.55 7.85 15.45 2.4 9.35 1.3 6.8 0.35 4.65 0.05 3.3 L0.05 2.5 Q0.55 0.75 3.75 0.4 3.1 0.85 3.1 1.95 3.1 5.4 11.55 15.45 L14.25 18.7 15.8 22.15 Q17.15 24.7 17.05 25.55 L17.25 29.1 17.2 30.2 17.2 31.0 16.55 33.85 16.6 34.7 Q16.75 35.55 17.3 35.55 L17.45 35.55" fill="#3b270e" fill-rule="evenodd" stroke="none"/>
      <path d="M5.6 2.0 Q5.15 2.0 5.15 2.35 5.15 3.5 9.65 8.4 L12.15 12.1 Q13.8 14.6 14.45 14.6 15.0 14.6 15.0 13.9 15.0 13.3 10.6 7.9 L7.9 4.9 Q6.7 2.0 5.6 2.0 M3.75 0.4 Q4.1 0.15 4.75 0.15 L5.75 0.2 5.7 0.0 6.05 0.55 9.45 4.4 14.85 10.75 23.55 21.05 21.65 26.3 Q19.65 31.15 18.3 33.7 L17.55 35.35 17.45 35.55 17.3 35.55 Q16.75 35.55 16.6 34.7 L16.55 33.85 17.2 31.0 17.2 30.2 17.25 29.1 17.05 25.55 Q17.15 24.7 15.8 22.15 L14.25 18.7 11.55 15.45 Q3.1 5.4 3.1 1.95 3.1 0.85 3.75 0.4 M19.8 20.2 Q18.0 20.2 18.0 20.95 18.0 22.5 19.5 22.5 20.75 22.5 20.75 21.6 20.5 20.2 19.8 20.2" fill="#715830" fill-rule="evenodd" stroke="none"/>
      <path d="M5.6 2.0 Q6.7 2.0 7.9 4.9 L10.6 7.9 Q15.0 13.3 15.0 13.9 15.0 14.6 14.45 14.6 13.8 14.6 12.15 12.1 L9.65 8.4 Q5.15 3.5 5.15 2.35 5.15 2.0 5.6 2.0 M19.8 20.2 Q20.5 20.2 20.75 21.6 20.75 22.5 19.5 22.5 18.0 22.5 18.0 20.95 18.0 20.2 19.8 20.2" fill="#b89b61" fill-rule="evenodd" stroke="none"/>
      <path d="M5.7 0.0 L6.05 0.55 M9.45 4.4 L14.85 10.75 23.55 21.05 21.65 26.3 Q19.65 31.15 18.3 33.7 L17.55 35.35 M17.45 35.55 L17.4 35.6 Q16.15 38.3 14.0 43.85 L12.75 36.45 Q12.45 34.35 12.9 32.4 13.3 30.45 13.3 27.45 13.3 21.55 7.85 15.45 2.4 9.35 1.3 6.8 0.35 4.65 0.05 3.3" fill="none" stroke="#000000" stroke-linecap="round" stroke-linejoin="round" stroke-width="1.0"/>
      <path d="M6.05 0.55 L9.45 4.4 M0.05 3.3 L0.05 2.5" fill="none" stroke="#000000" stroke-linecap="round" stroke-linejoin="round" stroke-width="1.0"/>
    </g>
    <g id="shape6" transform="matrix(1.0, 0.0, 0.0, 1.0, 0.5, 0.5)">
      <path d="M70.6 20.35 Q71.1 20.9 71.9 21.1 L72.05 21.15 72.65 21.0 74.2 20.95 75.95 20.15 76.2 19.95 76.4 19.95 Q77.65 20.1 78.15 21.8 L77.3 24.4 76.15 27.3 Q73.85 31.1 71.0 32.55 L71.7 32.8 71.85 32.8 Q80.7 32.8 81.3 30.35 82.95 27.05 82.95 25.7 82.95 24.9 82.35 23.95 81.7 23.05 81.7 22.45 81.7 21.05 82.9 21.05 86.15 21.05 88.05 24.45 89.4 26.85 89.4 28.75 89.4 32.6 88.1 35.1 86.95 37.25 84.05 39.65 79.4 43.3 75.65 44.35 69.65 49.3 68.5 49.3 67.4 49.3 67.15 48.45 L67.15 47.95 67.2 48.45 67.4 48.5 67.65 48.4 68.1 48.45 Q68.5 48.45 69.55 47.3 L70.95 45.25 Q71.25 44.35 72.3 43.65 L74.9 42.35 Q77.65 40.4 79.45 39.25 82.45 37.25 82.45 35.9 82.6 35.2 81.9 35.2 80.6 35.2 78.1 37.1 75.6 39.0 73.05 39.0 71.2 39.0 70.25 38.3 69.35 37.6 67.9 37.6 66.05 37.6 66.05 38.4 L66.2 38.75 65.85 39.05 65.95 38.35 Q66.15 37.75 66.65 37.45 67.45 37.0 67.45 35.7 67.45 34.0 66.15 33.55 64.3 32.85 63.9 32.3 61.4 28.7 59.4 28.7 L57.05 29.05 Q55.55 29.05 55.2 28.3 L55.1 27.4 Q55.1 25.05 57.0 23.3 59.05 20.5 60.2 19.2 L62.4 17.05 62.65 17.1 Q62.15 17.8 61.75 19.25 L61.25 22.25 Q61.25 23.55 63.75 23.55 64.6 23.55 67.95 19.9 L69.85 20.95 Q70.5 20.95 70.5 20.4 L70.6 20.35 M83.95 31.6 L84.55 32.15 Q85.25 32.15 85.25 31.0 85.25 30.45 84.7 30.45 83.95 30.45 83.95 31.6 M83.65 32.7 Q82.9 32.7 82.9 34.0 82.9 34.45 83.45 34.45 84.15 34.45 84.15 33.4 83.9 32.7 83.65 32.7 M69.0 3.3 L70.55 2.35 70.55 2.45 Q70.75 2.2 71.15 2.2 72.9 2.2 72.9 4.45 72.9 6.0 69.9 8.65 68.3 10.0 68.15 10.7 67.85 12.3 65.9 12.3 L65.8 12.3 Q65.1 12.3 64.8 10.9 L64.6 9.5 Q64.6 8.75 65.05 7.2 65.55 5.3 66.15 5.3 L66.05 5.1 69.0 3.3 M71.4 6.8 Q72.3 5.7 72.3 4.95 72.5 3.6 71.25 3.6 69.45 3.6 68.5 5.1 67.8 6.15 67.8 7.2 L68.0 7.65 Q68.35 8.1 69.05 8.1 70.3 8.1 71.4 6.8 M61.0 9.05 L61.1 9.15 61.8 8.95 Q63.55 8.95 63.4 10.95 63.4 14.6 59.25 18.95 55.5 22.85 53.7 22.85 52.45 22.85 52.45 22.05 L52.4 22.05 54.7 17.0 Q55.6 15.05 58.7 11.6 L59.9 10.35 59.85 10.3 59.9 10.25 61.0 9.05 M62.9 12.15 Q63.05 10.55 61.55 10.55 60.05 10.55 59.0 11.9 58.15 12.95 58.15 13.75 L58.2 14.55 Q58.45 15.35 59.5 15.35 61.0 15.35 62.05 14.05 62.9 13.0 62.9 12.15 M76.25 15.95 Q76.25 17.0 75.65 18.1 74.8 19.6 73.3 19.6 72.45 19.6 72.05 19.05 L71.6 18.45 71.6 17.8 Q71.6 16.9 72.15 15.75 72.95 14.05 74.4 14.05 76.3 14.05 76.25 15.85 L76.25 15.95 M73.3 16.35 Q72.45 17.45 72.45 17.9 L72.95 18.65 Q73.45 18.65 74.05 17.25 75.4 15.95 75.4 15.65 75.4 15.1 74.8 15.1 74.2 15.1 73.3 16.35 M56.5 10.25 Q56.5 11.45 52.0 13.6 50.5 14.7 49.0 17.4 L47.05 21.75 Q45.3 25.1 43.45 25.1 39.5 25.1 39.5 22.3 39.5 19.5 40.65 18.55 L43.0 16.35 45.15 14.6 Q46.1 13.8 49.9 11.8 53.65 9.8 55.05 9.8 56.5 9.8 56.5 10.25 M42.5 22.45 Q41.65 21.8 40.95 21.8 39.85 21.8 39.85 22.25 L42.9 23.85 Q43.3 23.85 43.3 23.3 43.3 23.0 42.5 22.45 M42.3 20.3 Q42.3 21.3 43.5 21.3 47.75 21.3 51.0 12.75 51.15 12.05 50.55 12.05 49.4 12.05 46.05 14.85 42.3 18.0 42.3 20.3 M49.85 13.0 L50.05 13.0 50.0 13.05 50.0 13.1 49.85 13.0 M59.2 25.35 Q58.6 26.05 58.6 26.6 L58.75 27.3 Q59.1 27.95 60.15 27.95 61.15 27.95 61.9 27.25 62.5 26.7 62.5 26.25 62.45 24.5 61.05 24.5 59.95 24.5 59.2 25.35 M55.05 37.05 L55.7 36.05 56.1 35.65 Q57.05 34.85 58.4 34.85 61.6 34.85 61.4 37.95 61.4 40.25 58.3 40.7 59.15 41.95 59.15 43.0 59.15 44.7 57.9 44.7 56.95 44.7 55.0 42.5 L52.7 39.8 Q46.7 35.95 46.7 35.45 46.7 33.85 48.85 33.85 51.65 33.85 53.65 35.6 L55.05 37.05 M48.2 34.6 Q47.7 34.6 47.7 35.15 L55.2 40.9 Q55.75 40.9 55.9 40.25 L52.6 37.35 Q49.15 34.6 48.2 34.6 M35.8 48.1 Q38.6 45.65 39.9 44.7 38.3 43.15 38.3 42.5 38.3 41.45 39.6 41.45 41.2 41.45 45.15 44.95 L47.4 46.95 47.75 47.6 Q48.55 46.4 50.5 46.25 L46.3 43.45 Q42.05 40.2 42.05 39.4 42.05 39.0 42.6 38.5 43.3 37.85 44.2 37.85 46.35 37.85 47.8 39.3 L49.55 41.45 51.95 43.45 Q53.15 44.5 53.15 45.5 53.15 46.2 52.85 46.5 53.8 46.85 54.25 47.75 L54.25 48.55 54.3 48.75 54.25 48.85 54.25 48.9 54.05 49.05 53.9 49.05 53.8 49.2 Q53.2 48.75 52.25 48.75 49.3 48.75 49.3 51.15 L49.5 52.6 49.65 52.65 49.6 52.8 48.95 52.95 48.4 52.9 Q47.55 52.6 47.3 51.4 L47.25 50.35 46.7 50.45 Q45.55 50.45 43.2 47.9 L40.55 50.4 Q41.6 50.75 42.4 51.85 L42.4 52.6 42.4 52.65 42.2 52.85 42.15 52.85 Q42.05 52.95 42.05 52.7 L41.8 53.05 41.6 52.95 41.55 52.95 40.2 52.65 Q37.8 52.65 37.8 54.7 37.8 55.15 38.15 56.3 L38.3 56.55 38.55 56.7 38.5 56.9 38.4 56.95 Q36.7 56.3 36.35 55.65 36.2 55.4 36.2 54.3 L32.9 57.25 32.85 57.3 34.2 57.2 Q34.8 57.2 35.7 58.0 L36.55 59.05 36.5 59.35 36.45 59.45 36.25 59.45 36.1 59.25 35.1 59.0 34.55 59.05 34.65 58.75 Q34.65 58.3 33.0 58.3 29.65 58.3 29.65 60.65 L30.1 62.4 30.45 62.3 30.55 60.45 31.45 59.5 31.7 59.35 33.85 59.25 32.55 59.85 Q30.95 60.85 30.95 62.15 30.95 62.9 31.3 64.0 L31.35 64.1 31.45 64.5 31.85 65.3 31.75 65.35 31.7 65.5 31.5 65.55 Q29.9 65.55 29.35 63.75 L29.15 62.5 29.1 61.85 28.8 62.5 Q27.75 67.5 26.95 67.5 26.35 67.5 26.2 66.75 L26.2 65.95 Q26.2 64.0 27.95 60.85 29.75 57.6 31.95 55.9 L37.8 50.15 Q40.5 47.45 42.0 46.55 L41.95 46.5 41.1 45.8 Q38.8 48.1 28.95 56.1 26.85 57.8 25.2 61.75 24.6 63.15 24.15 65.7 23.9 67.2 23.2 67.2 22.6 67.2 22.45 66.35 L22.45 65.5 22.5 65.0 19.35 65.7 12.6 66.25 Q11.4 66.95 10.35 66.95 L10.15 66.95 9.7 67.0 Q7.45 67.0 6.35 65.1 L5.7 63.1 Q5.7 62.5 6.8 61.95 7.95 61.35 9.45 61.35 10.8 61.35 11.95 62.85 13.1 64.35 14.2 64.35 L21.85 63.75 22.8 63.45 23.1 62.65 24.15 60.05 25.15 58.2 25.2 58.15 25.05 58.15 19.95 58.9 Q19.85 59.6 18.9 60.55 17.55 61.85 15.55 61.85 L13.85 61.7 12.9 61.4 Q11.65 60.8 11.65 59.45 11.65 58.15 12.3 56.65 L12.95 55.5 Q13.85 54.3 15.3 54.3 17.05 54.3 18.85 55.9 L21.65 56.1 25.65 55.9 27.2 55.35 Q25.1 57.85 25.1 58.75 L25.45 59.1 29.95 53.5 Q30.55 52.7 33.05 50.7 37.5 49.15 37.5 48.5 37.5 47.95 36.7 47.95 L35.8 48.1 M48.5 48.9 L48.65 49.2 48.9 49.25 49.85 48.45 51.15 48.2 51.8 47.65 Q51.8 47.2 51.25 47.2 48.5 47.2 48.5 48.9 M44.0 47.6 Q44.7 47.6 44.7 47.0 40.8 42.1 39.2 42.1 38.55 42.1 38.55 42.65 L44.0 47.6 M43.6 38.6 Q42.9 38.6 42.9 39.15 L49.5 44.0 Q50.2 44.0 50.2 43.4 50.2 42.95 47.8 40.95 45.1 38.6 43.6 38.6 M19.65 47.15 Q20.1 45.4 17.9 45.4 15.25 45.4 15.25 47.0 15.25 48.55 16.9 48.55 19.65 48.55 19.65 47.15 M16.8 45.05 Q19.55 43.45 20.45 43.85 21.65 43.8 21.65 45.45 21.65 46.3 19.3 48.35 16.8 50.5 15.35 50.5 14.0 50.5 13.75 49.75 L13.75 48.95 Q13.75 46.85 16.8 45.05 M39.95 29.6 Q40.0 29.05 39.25 29.05 34.8 29.05 34.8 30.1 34.8 30.55 35.35 30.55 39.95 30.2 39.95 29.6 M39.4 27.1 Q40.6 27.1 40.8 29.1 40.8 30.9 37.65 31.4 L35.4 32.25 35.55 32.25 40.0 31.45 Q41.8 31.45 41.8 32.65 41.8 34.2 39.4 35.0 L33.35 36.55 Q37.3 36.55 37.3 37.7 37.3 38.4 35.3 39.25 L32.95 39.45 32.2 39.6 31.85 40.1 31.0 41.0 Q30.4 41.8 28.9 42.8 26.95 44.0 25.4 44.0 24.2 44.0 24.2 42.85 24.2 41.45 26.4 39.75 L30.0 36.8 Q31.7 34.75 32.05 33.7 L32.35 33.35 33.95 29.6 36.25 28.2 Q37.7 27.1 39.4 27.1 M27.9 42.4 Q28.0 41.15 26.75 41.15 25.65 41.15 25.65 42.05 25.65 43.05 26.95 43.05 27.9 43.05 27.9 42.4 M33.0 34.75 Q33.0 35.2 33.6 35.2 L36.9 34.3 39.85 33.8 Q40.4 33.7 40.4 33.25 L40.35 33.05 Q40.1 32.7 39.4 32.7 33.0 32.7 33.0 34.75 M30.25 45.4 L30.3 45.8 Q30.45 46.15 31.15 46.15 32.7 46.15 32.7 45.4 32.7 44.55 31.45 44.55 30.25 44.55 30.25 45.4 M31.45 50.75 L29.85 50.75 28.7 50.95 28.0 50.95 27.2 51.0 26.45 51.0 25.7 52.2 Q24.2 53.45 20.2 53.45 19.3 53.45 18.9 52.6 L18.65 51.7 Q18.65 50.9 21.7 49.35 23.55 48.35 25.35 47.3 L25.95 47.55 26.75 48.2 Q28.3 49.1 31.75 49.1 L34.25 48.7 Q32.95 49.4 31.45 50.75 M28.9 46.55 L28.8 46.05 Q28.8 44.45 30.4 44.05 L30.45 44.05 32.65 43.7 34.75 42.15 35.65 41.55 36.2 41.4 36.4 41.35 Q37.4 41.35 37.25 42.65 37.25 43.75 35.1 45.25 32.6 47.0 29.6 47.0 29.1 47.0 28.9 46.55 M31.6 38.85 L32.7 38.75 33.3 38.55 Q35.95 38.5 35.95 37.95 35.95 37.5 34.3 37.5 30.7 37.5 30.1 38.45 30.5 38.85 31.6 38.85 M39.4 51.65 Q39.4 51.2 38.45 51.2 37.05 51.2 37.05 52.55 37.05 53.2 37.6 53.45 L38.0 52.5 Q38.3 51.85 38.9 51.8 L39.4 51.65 M20.6 52.35 Q20.6 52.85 21.5 52.85 24.0 52.85 24.0 51.2 24.15 49.25 22.95 49.6 20.6 49.4 20.6 52.35 M23.4 72.6 Q23.85 72.6 23.85 72.2 23.35 71.35 22.85 71.35 22.15 71.35 22.15 71.8 L23.4 72.6 M21.2 72.9 L22.45 74.1 22.75 74.0 22.8 73.65 Q21.9 72.6 21.5 72.6 L21.25 72.65 21.2 72.9 M24.15 70.6 Q23.55 70.6 23.55 70.95 23.55 71.55 24.45 71.55 25.0 71.55 25.0 71.15 25.15 70.6 24.15 70.6 M19.6 75.75 L19.15 75.3 19.15 74.7 Q19.15 74.0 22.0 71.55 25.05 68.95 26.55 68.95 27.9 68.95 27.9 70.3 27.9 71.05 26.95 71.8 L24.95 73.35 Q22.0 75.9 20.45 75.9 L19.8 75.85 19.6 75.75 M11.35 55.3 Q10.45 56.7 9.1 56.7 8.05 56.7 7.8 55.5 L7.75 54.3 Q7.75 53.8 8.6 52.7 9.6 51.35 10.6 51.35 12.15 51.35 12.0 53.35 12.0 54.2 11.35 55.3 M2.9 57.75 Q2.9 59.8 4.05 59.8 5.4 59.8 5.4 58.35 5.25 56.75 4.55 56.75 2.9 56.75 2.9 57.75 M13.6 58.95 Q13.9 59.5 14.65 59.5 17.05 59.5 17.05 57.7 17.0 56.2 15.95 56.2 14.25 56.2 13.7 57.2 13.45 57.6 13.45 58.35 L13.6 58.95 M11.4 53.9 Q11.65 52.55 10.15 52.55 8.95 52.55 8.95 54.2 L9.7 54.95 Q11.4 54.95 11.4 53.9 M5.0 55.9 Q6.0 55.9 6.0 57.4 4.55 62.0 1.85 62.0 1.25 62.0 1.05 61.35 L1.0 60.65 Q1.0 59.45 1.8 58.0 2.95 55.9 5.0 55.9 M20.5 74.65 Q21.05 75.45 21.5 75.45 22.05 75.45 22.05 75.0 L20.45 73.35 Q20.05 73.35 20.05 73.85 L20.5 74.65 M8.4 65.1 Q9.8 65.1 9.8 64.3 9.75 62.6 8.7 62.6 6.95 62.6 6.95 63.25 L7.15 64.2 Q7.5 65.1 8.4 65.1 M45.75 59.15 L45.7 59.2 44.95 59.2 Q43.85 58.3 43.85 55.65 L43.95 54.1 Q44.5 53.1 46.9 53.1 L48.3 53.25 49.05 53.5 49.4 55.1 49.0 55.0 48.7 54.7 48.4 54.75 47.7 54.65 Q45.3 54.65 45.3 56.9 45.3 58.1 45.65 58.9 L45.75 58.95 45.75 59.15 M45.55 53.95 Q44.3 53.95 44.3 55.65 L44.7 56.0 46.15 54.4 Q46.15 53.95 45.55 53.95" fill="#6f582f" fill-rule="evenodd" stroke="none"/>
      <path d="M70.6 20.35 L70.5 20.4 Q70.5 20.95 69.85 20.95 L67.95 19.9 Q64.6 23.55 63.75 23.55 61.25 23.55 61.25 22.25 L61.75 19.25 Q62.15 17.8 62.65 17.1 L62.4 17.05 64.1 15.6 Q68.15 12.2 70.05 12.2 L71.05 12.3 71.15 12.3 Q71.9 12.3 71.9 13.15 L71.9 13.2 71.9 13.25 Q71.9 13.8 71.5 14.0 L70.9 14.95 Q69.9 16.8 69.9 18.0 69.9 19.55 70.6 20.35 M65.85 39.05 L66.2 38.75 66.05 38.4 Q66.05 37.6 67.9 37.6 69.35 37.6 70.25 38.3 71.2 39.0 73.05 39.0 75.6 39.0 78.1 37.1 80.6 35.2 81.9 35.2 82.6 35.2 82.45 35.9 82.45 37.25 79.45 39.25 77.65 40.4 74.9 42.35 L72.3 43.65 Q71.25 44.35 70.95 45.25 L69.55 47.3 Q68.5 48.45 68.1 48.45 L67.65 48.4 67.4 48.5 67.2 48.45 67.15 47.95 67.1 47.6 Q67.1 46.75 68.0 45.6 68.85 44.5 68.85 43.75 68.85 42.05 67.35 40.95 65.85 39.85 65.85 39.05 M83.65 32.7 Q83.9 32.7 84.15 33.4 84.15 34.45 83.45 34.45 82.9 34.45 82.9 34.0 82.9 32.7 83.65 32.7 M83.95 31.6 Q83.95 30.45 84.7 30.45 85.25 30.45 85.25 31.0 85.25 32.15 84.55 32.15 L83.95 31.6 M71.4 6.8 Q70.3 8.1 69.05 8.1 68.35 8.1 68.0 7.65 L67.8 7.2 Q67.8 6.15 68.5 5.1 69.45 3.6 71.25 3.6 72.5 3.6 72.3 4.95 72.3 5.7 71.4 6.8 M66.75 1.8 L66.65 1.95 66.7 2.05 65.65 3.7 64.2 5.35 63.95 5.65 63.5 4.65 66.3 1.3 Q66.6 1.3 66.75 1.8 M62.9 12.15 Q62.9 13.0 62.05 14.05 61.0 15.35 59.5 15.35 58.45 15.35 58.2 14.55 L58.15 13.75 Q58.15 12.95 59.0 11.9 60.05 10.55 61.55 10.55 63.05 10.55 62.9 12.15 M73.3 16.35 Q74.2 15.1 74.8 15.1 75.4 15.1 75.4 15.65 75.4 15.95 74.05 17.25 73.45 18.65 72.95 18.65 L72.45 17.9 Q72.45 17.45 73.3 16.35 M49.85 13.0 L50.0 13.1 50.0 13.05 50.05 13.0 49.85 13.0 M42.3 20.3 Q42.3 18.0 46.05 14.85 49.4 12.05 50.55 12.05 51.15 12.05 51.0 12.75 47.75 21.3 43.5 21.3 42.3 21.3 42.3 20.3 M42.5 22.45 Q43.3 23.0 43.3 23.3 43.3 23.85 42.9 23.85 L39.85 22.25 Q39.85 21.8 40.95 21.8 41.65 21.8 42.5 22.45 M59.2 25.35 Q59.95 24.5 61.05 24.5 62.45 24.5 62.5 26.25 62.5 26.7 61.9 27.25 61.15 27.95 60.15 27.95 59.1 27.95 58.75 27.3 L58.6 26.6 Q58.6 26.05 59.2 25.35 M48.2 34.6 Q49.15 34.6 52.6 37.35 L55.9 40.25 Q55.75 40.9 55.2 40.9 L47.7 35.15 Q47.7 34.6 48.2 34.6 M43.6 38.6 Q45.1 38.6 47.8 40.95 50.2 42.95 50.2 43.4 50.2 44.0 49.5 44.0 L42.9 39.15 Q42.9 38.6 43.6 38.6 M44.0 47.6 L38.55 42.65 Q38.55 42.1 39.2 42.1 40.8 42.1 44.7 47.0 44.7 47.6 44.0 47.6 M48.5 48.9 Q48.5 47.2 51.25 47.2 51.8 47.2 51.8 47.65 L51.15 48.2 49.85 48.45 48.9 49.25 48.65 49.2 48.5 48.9 M19.65 47.15 Q19.65 48.55 16.9 48.55 15.25 48.55 15.25 47.0 15.25 45.4 17.9 45.4 20.1 45.4 19.65 47.15 M39.95 29.6 Q39.95 30.2 35.35 30.55 34.8 30.55 34.8 30.1 34.8 29.05 39.25 29.05 40.0 29.05 39.95 29.6 M33.0 34.75 Q33.0 32.7 39.4 32.7 40.1 32.7 40.35 33.05 L40.4 33.25 Q40.4 33.7 39.85 33.8 L36.9 34.3 33.6 35.2 Q33.0 35.2 33.0 34.75 M27.9 42.4 Q27.9 43.05 26.95 43.05 25.65 43.05 25.65 42.05 25.65 41.15 26.75 41.15 28.0 41.15 27.9 42.4 M30.25 45.4 Q30.25 44.55 31.45 44.55 32.7 44.55 32.7 45.4 32.7 46.15 31.15 46.15 30.45 46.15 30.3 45.8 L30.25 45.4 M34.25 48.7 Q35.05 48.25 35.8 48.1 L36.7 47.95 Q37.5 47.95 37.5 48.5 37.5 49.15 33.05 50.7 30.55 52.7 29.95 53.5 L25.45 59.1 25.1 58.75 Q25.1 57.85 27.2 55.35 L29.25 52.95 31.45 50.75 Q32.95 49.4 34.25 48.7 M31.6 38.85 Q30.5 38.85 30.1 38.45 30.7 37.5 34.3 37.5 35.95 37.5 35.95 37.95 35.95 38.5 33.3 38.55 L32.7 38.75 31.6 38.85 M39.4 51.65 L38.9 51.8 Q38.3 51.85 38.0 52.5 L37.6 53.45 Q37.05 53.2 37.05 52.55 37.05 51.2 38.45 51.2 39.4 51.2 39.4 51.65 M33.85 59.25 L31.7 59.35 31.45 59.5 30.55 60.45 30.45 62.3 30.1 62.4 29.65 60.65 Q29.65 58.3 33.0 58.3 34.65 58.3 34.65 58.75 L34.55 59.05 34.2 59.2 33.85 59.25 M20.6 52.35 Q20.6 49.4 22.95 49.6 24.15 49.25 24.0 51.2 24.0 52.85 21.5 52.85 20.6 52.85 20.6 52.35 M24.15 70.6 Q25.15 70.6 25.0 71.15 25.0 71.55 24.45 71.55 23.55 71.55 23.55 70.95 23.55 70.6 24.15 70.6 M21.2 72.9 L21.25 72.65 21.5 72.6 Q21.9 72.6 22.8 73.65 L22.75 74.0 22.45 74.1 21.2 72.9 M23.4 72.6 L22.15 71.8 Q22.15 71.35 22.85 71.35 23.35 71.35 23.85 72.2 23.85 72.6 23.4 72.6 M11.4 53.9 Q11.4 54.95 9.7 54.95 L8.95 54.2 Q8.95 52.55 10.15 52.55 11.65 52.55 11.4 53.9 M13.6 58.95 L13.45 58.35 Q13.45 57.6 13.7 57.2 14.25 56.2 15.95 56.2 17.0 56.2 17.05 57.7 17.05 59.5 14.65 59.5 13.9 59.5 13.6 58.95 M2.9 57.75 Q2.9 56.75 4.55 56.75 5.25 56.75 5.4 58.35 5.4 59.8 4.05 59.8 2.9 59.8 2.9 57.75 M8.4 65.1 Q7.5 65.1 7.15 64.2 L6.95 63.25 Q6.95 62.6 8.7 62.6 9.75 62.6 9.8 64.3 9.8 65.1 8.4 65.1 M20.5 74.65 L20.05 73.85 Q20.05 73.35 20.45 73.35 L22.05 75.0 Q22.05 75.45 21.5 75.45 21.05 75.45 20.5 74.65 M45.55 53.95 Q46.15 53.95 46.15 54.4 L44.7 56.0 44.3 55.65 Q44.3 53.95 45.55 53.95" fill="#b99c62" fill-rule="evenodd" stroke="none"/>
      <path d="M67.15 47.95 L67.15 48.45 Q67.4 49.3 68.5 49.3 69.65 49.3 75.65 44.35 79.4 43.3 84.05 39.65 86.95 37.25 88.1 35.1 89.4 32.6 89.4 28.75 89.4 26.85 88.05 24.45 86.15 21.05 82.9 21.05 81.7 21.05 81.7 22.45 81.7 23.05 82.35 23.95 82.95 24.9 82.95 25.7 82.95 27.05 81.3 30.35 80.7 32.8 71.85 32.8 L71.7 32.8 71.0 32.55 Q73.85 31.1 76.15 27.3 L77.3 24.4 78.15 21.8 Q77.65 20.1 76.4 19.95 L76.2 19.95 75.95 20.15 74.2 20.95 72.65 21.0 72.05 21.15 71.9 21.1 Q71.1 20.9 70.6 20.35 69.9 19.55 69.9 18.0 69.9 16.8 70.9 14.95 L71.5 14.0 Q71.9 13.8 71.9 13.25 L71.9 13.2 71.9 13.15 Q71.9 12.3 71.15 12.3 L71.05 12.3 70.05 12.2 Q68.15 12.2 64.1 15.6 L62.4 17.05 60.2 19.2 Q59.05 20.5 57.0 23.3 55.1 25.05 55.1 27.4 L55.2 28.3 Q55.55 29.05 57.05 29.05 L59.4 28.7 Q61.4 28.7 63.9 32.3 64.3 32.85 66.15 33.55 67.45 34.0 67.45 35.7 67.45 37.0 66.65 37.45 66.15 37.75 65.95 38.35 L65.85 39.05 Q65.85 39.85 67.35 40.95 68.85 42.05 68.85 43.75 68.85 44.5 68.0 45.6 67.1 46.75 67.1 47.6 L67.15 47.95 M79.7 16.1 Q79.6 17.3 79.15 17.0 L79.95 18.2 Q93.35 22.9 93.35 31.5 93.35 34.25 91.45 37.75 90.25 39.85 86.45 41.9 L77.8 47.4 74.5 49.05 Q72.5 50.0 71.1 51.05 69.7 52.1 68.8 53.35 67.9 54.6 65.65 56.0 63.4 57.4 61.2 57.6 L58.5 57.75 54.9 59.8 Q51.3 61.05 43.7 65.15 L39.95 66.85 Q37.6 68.9 30.8 71.7 22.45 75.1 19.55 78.5 17.9 78.6 17.35 77.3 L17.25 76.95 Q17.95 72.45 26.75 67.8 L25.35 67.55 23.2 67.4 Q21.25 67.4 19.1 68.1 15.8 69.2 12.8 69.3 6.4 67.65 3.2 65.7 0.45 64.0 0.1 62.05 -0.8 57.75 5.2 53.85 L7.05 52.65 Q11.35 49.75 12.2 48.6 12.85 47.65 13.6 46.85 15.9 44.35 19.2 42.85 20.5 42.25 23.05 41.2 L23.25 41.15 23.3 41.1 Q25.75 40.0 28.1 37.9 30.4 35.75 33.6 29.1 L33.65 29.0 Q34.3 28.3 36.2 27.2 38.7 25.75 40.05 25.75 42.25 25.75 42.55 28.05 42.8 30.35 44.1 30.35 L46.35 29.9 49.2 29.0 49.35 28.8 50.25 27.15 50.35 26.9 50.55 26.45 49.55 25.75 Q48.55 24.85 49.0 22.3 49.4 19.7 52.35 15.35 55.95 11.55 59.1 9.4 L59.85 10.2 Q60.75 7.0 62.35 5.05 L66.95 0.0 Q67.8 0.5 69.0 3.3 L66.05 5.1 66.15 5.3 Q65.55 5.3 65.05 7.2 64.6 8.75 64.6 9.5 L64.8 10.9 Q65.1 12.3 65.8 12.3 L65.9 12.3 Q67.85 12.3 68.15 10.7 68.3 10.0 69.9 8.65 72.9 6.0 72.9 4.45 72.9 2.2 71.15 2.2 70.75 2.2 70.55 2.45 L70.55 2.35 71.6 1.7 Q73.65 1.85 75.55 3.85 77.45 5.85 78.85 9.65 80.25 13.45 79.7 16.1 M33.65 28.95 Q36.9 22.15 38.95 19.65 40.95 17.1 47.05 12.6 48.2 11.65 51.05 10.5 53.85 9.3 55.4 9.05 L58.35 9.15 59.1 9.4 Q55.95 11.55 52.35 15.35 49.4 19.7 49.0 22.3 48.55 24.85 49.55 25.75 L50.55 26.45 50.35 26.9 50.25 27.15 49.35 28.8 49.2 29.0 46.35 29.9 44.1 30.35 Q42.8 30.35 42.55 28.05 42.25 25.75 40.05 25.75 38.7 25.75 36.2 27.2 34.3 28.3 33.65 29.0 L33.65 28.95 M61.0 9.05 Q63.1 6.85 63.95 6.35 L66.05 5.1 63.95 6.35 Q63.1 6.85 61.0 9.05 L59.9 10.25 59.85 10.2 59.85 10.25 59.8 10.35 58.7 11.6 Q55.6 15.05 54.7 17.0 L52.4 22.05 52.45 22.05 Q52.45 22.85 53.7 22.85 55.5 22.85 59.25 18.95 63.4 14.6 63.4 10.95 63.55 8.95 61.8 8.95 L61.1 9.15 61.0 9.05 M79.15 17.0 L77.3 15.0 74.65 12.95 Q72.7 11.75 71.0 11.75 68.2 11.75 65.4 13.85 L60.55 17.9 55.95 23.0 Q53.2 26.65 51.55 26.65 L50.55 26.45 50.95 25.5 52.4 22.05 50.95 25.5 50.55 26.45 51.55 26.65 Q53.2 26.65 55.95 23.0 L60.55 17.9 65.4 13.85 Q68.2 11.75 71.0 11.75 72.7 11.75 74.65 12.95 L77.3 15.0 79.15 17.0 M66.75 1.8 Q66.6 1.3 66.3 1.3 L63.5 4.65 63.95 5.65 64.2 5.35 65.65 3.7 66.7 2.05 66.65 1.95 66.75 1.8 M76.25 15.95 L76.25 15.85 Q76.3 14.05 74.4 14.05 72.95 14.05 72.15 15.75 71.6 16.9 71.6 17.8 L71.6 18.45 72.05 19.05 Q72.45 19.6 73.3 19.6 74.8 19.6 75.65 18.1 76.25 17.0 76.25 15.95 M75.95 20.15 L73.35 20.75 Q70.6 20.75 70.6 18.4 70.6 17.2 71.85 15.25 73.05 13.35 74.1 13.0 L74.65 12.95 74.1 13.0 Q73.05 13.35 71.85 15.25 70.6 17.2 70.6 18.4 70.6 20.75 73.35 20.75 L75.95 20.15 M80.5 19.2 L79.95 18.2 80.5 19.2 Q81.05 20.55 81.05 21.95 81.05 25.3 78.4 28.6 76.8 30.55 75.0 31.6 L72.5 32.4 Q72.05 32.55 71.7 32.8 72.05 32.55 72.5 32.4 L75.0 31.6 Q76.8 30.55 78.4 28.6 81.05 25.3 81.05 21.95 81.05 20.55 80.5 19.2 79.25 18.95 76.85 19.8 L76.4 19.95 76.85 19.8 Q79.25 18.95 80.5 19.2 M56.5 10.25 Q56.5 9.8 55.05 9.8 53.65 9.8 49.9 11.8 46.1 13.8 45.15 14.6 L43.0 16.35 40.65 18.55 Q39.5 19.5 39.5 22.3 39.5 25.1 43.45 25.1 45.3 25.1 47.05 21.75 L49.0 17.4 Q50.5 14.7 52.0 13.6 56.5 11.45 56.5 10.25 M55.05 37.05 L53.65 35.6 Q51.65 33.85 48.85 33.85 46.7 33.85 46.7 35.45 46.7 35.95 52.7 39.8 L55.0 42.5 Q56.95 44.7 57.9 44.7 59.15 44.7 59.15 43.0 59.15 41.95 58.3 40.7 61.4 40.25 61.4 37.95 61.6 34.85 58.4 34.85 57.05 34.85 56.1 35.65 L55.7 36.05 55.05 37.05 M50.25 27.15 Q50.7 33.15 56.0 35.5 55.4 34.8 55.85 34.1 56.3 33.25 57.1 33.0 57.85 32.75 60.9 34.05 63.9 35.35 64.2 36.95 64.45 38.5 60.1 41.25 64.7 41.95 64.95 46.2 65.15 50.4 61.8 54.45 L58.5 57.75 61.8 54.45 Q65.15 50.4 64.95 46.2 64.7 41.95 60.1 41.25 64.45 38.5 64.2 36.95 63.9 35.35 60.9 34.05 57.85 32.75 57.1 33.0 56.3 33.25 55.85 34.1 55.4 34.8 56.0 35.5 50.7 33.15 50.25 27.15 M53.8 49.2 L53.9 49.05 54.05 49.05 54.25 48.9 54.25 48.85 54.3 48.75 54.25 48.55 54.25 47.75 Q53.8 46.85 52.85 46.5 53.15 46.2 53.15 45.5 53.15 44.5 51.95 43.45 L49.55 41.45 47.8 39.3 Q46.35 37.85 44.2 37.85 43.3 37.85 42.6 38.5 42.05 39.0 42.05 39.4 42.05 40.2 46.3 43.45 L50.5 46.25 Q48.55 46.4 47.75 47.6 L47.4 46.95 45.15 44.95 Q41.2 41.45 39.6 41.45 38.3 41.45 38.3 42.5 38.3 43.15 39.9 44.7 38.6 45.65 35.8 48.1 35.05 48.25 34.25 48.7 L31.75 49.1 Q28.3 49.1 26.75 48.2 L25.95 47.55 25.35 47.3 Q23.55 48.35 21.7 49.35 18.65 50.9 18.65 51.7 L18.9 52.6 Q19.3 53.45 20.2 53.45 24.2 53.45 25.7 52.2 L26.45 51.0 27.2 51.0 28.0 50.95 28.7 50.95 29.85 50.75 31.45 50.75 29.25 52.95 27.2 55.35 25.65 55.9 21.65 56.1 18.85 55.9 Q17.05 54.3 15.3 54.3 13.85 54.3 12.95 55.5 L12.3 56.65 Q11.65 58.15 11.65 59.45 11.65 60.8 12.9 61.4 L13.85 61.7 15.55 61.85 Q17.55 61.85 18.9 60.55 19.85 59.6 19.95 58.9 L25.05 58.15 25.2 58.15 25.15 58.2 24.15 60.05 23.1 62.65 22.8 63.45 21.85 63.75 14.2 64.35 Q13.1 64.35 11.95 62.85 10.8 61.35 9.45 61.35 7.95 61.35 6.8 61.95 5.7 62.5 5.7 63.1 L6.35 65.1 Q7.45 67.0 9.7 67.0 L10.15 66.95 10.35 66.95 Q11.4 66.95 12.6 66.25 L19.35 65.7 22.5 65.0 22.45 65.5 22.45 66.35 Q22.6 67.2 23.2 67.2 23.9 67.2 24.15 65.7 24.6 63.15 25.2 61.75 26.85 57.8 28.95 56.1 38.8 48.1 41.1 45.8 L41.95 46.5 42.0 46.55 Q40.5 47.45 37.8 50.15 L31.95 55.9 Q29.75 57.6 27.95 60.85 26.2 64.0 26.2 65.95 L26.2 66.75 Q26.35 67.5 26.95 67.5 27.75 67.5 28.8 62.5 L29.1 61.85 29.15 62.5 29.35 63.75 Q29.9 65.55 31.5 65.55 L31.7 65.5 31.75 65.35 31.85 65.3 Q32.7 66.35 34.85 66.35 37.95 66.35 37.95 62.85 37.95 61.4 37.2 60.25 L36.45 59.45 37.2 60.25 Q37.95 61.4 37.95 62.85 37.95 66.35 34.85 66.35 32.7 66.35 31.85 65.3 L31.45 64.5 31.35 64.1 31.3 64.0 Q30.95 62.9 30.95 62.15 30.95 60.85 32.55 59.85 L33.85 59.25 34.2 59.2 34.55 59.05 35.1 59.0 36.1 59.25 36.25 59.45 36.45 59.45 36.5 59.35 36.55 59.05 35.7 58.0 Q34.8 57.2 34.2 57.2 L32.85 57.3 32.9 57.25 36.2 54.3 Q36.2 55.4 36.35 55.65 36.7 56.3 38.4 56.95 L38.5 56.9 38.75 57.4 Q39.9 59.15 41.4 59.15 43.3 59.15 43.3 57.25 43.3 54.15 41.9 53.15 L41.6 52.95 41.9 53.15 Q43.3 54.15 43.3 57.25 43.3 59.15 41.4 59.15 39.9 59.15 38.75 57.4 L38.5 56.9 38.55 56.7 38.3 56.55 38.15 56.3 Q37.8 55.15 37.8 54.7 37.8 52.65 40.2 52.65 L41.55 52.95 41.6 52.95 41.8 53.05 42.05 52.7 Q42.05 52.95 42.15 52.85 L42.2 52.85 42.4 52.65 42.4 52.6 42.4 51.85 Q41.6 50.75 40.55 50.4 L43.2 47.9 Q45.55 50.45 46.7 50.45 L47.25 50.35 47.3 51.4 Q47.55 52.6 48.4 52.9 L48.95 52.95 49.6 52.8 Q49.9 53.55 50.7 53.65 L51.05 53.75 53.2 53.9 Q54.75 53.9 54.65 51.35 54.6 49.85 53.8 49.2 54.6 49.85 54.65 51.35 54.75 53.9 53.2 53.9 L51.05 53.75 50.7 53.65 Q49.9 53.55 49.6 52.8 L49.65 52.65 49.5 52.6 49.3 51.15 Q49.3 48.75 52.25 48.75 53.2 48.75 53.8 49.2 M9.0 58.45 Q9.25 60.6 12.7 61.85 L12.75 61.9 12.95 61.95 13.7 62.2 Q16.4 63.0 19.5 63.0 L23.1 62.65 19.5 63.0 Q16.4 63.0 13.7 62.2 L12.95 61.95 12.75 61.9 12.7 61.85 Q9.25 60.6 9.0 58.45 L9.1 58.5 9.05 58.2 9.05 58.15 12.55 55.15 Q13.7 53.5 14.65 52.6 15.2 52.05 15.7 51.75 L16.0 51.6 15.7 51.75 Q15.2 52.05 14.65 52.6 13.7 53.5 12.55 55.15 L9.05 58.15 9.05 58.2 8.95 58.25 8.8 58.35 9.0 58.45 M3.2 65.7 Q3.6 63.05 5.4 61.15 L8.8 58.35 5.4 61.15 Q3.6 63.05 3.2 65.7 M80.2 30.75 L75.0 31.6 80.2 30.75 M16.8 45.05 Q13.75 46.85 13.75 48.95 L13.75 49.75 Q14.0 50.5 15.35 50.5 16.8 50.5 19.3 48.35 21.65 46.3 21.65 45.45 21.65 43.8 20.45 43.85 19.55 43.45 16.8 45.05 M39.4 27.1 Q37.7 27.1 36.25 28.2 L33.95 29.6 32.35 33.35 32.05 33.7 Q31.7 34.75 30.0 36.8 L26.4 39.75 Q24.2 41.45 24.2 42.85 24.2 44.0 25.4 44.0 26.95 44.0 28.9 42.8 30.4 41.8 31.0 41.0 L31.85 40.1 32.2 39.6 32.95 39.45 35.3 39.25 Q37.3 38.4 37.3 37.7 37.3 36.55 33.35 36.55 L39.4 35.0 Q41.8 34.2 41.8 32.65 41.8 31.45 40.0 31.45 L35.55 32.25 35.4 32.25 37.65 31.4 Q40.8 30.9 40.8 29.1 40.6 27.1 39.4 27.1 M25.35 45.9 L24.55 46.0 Q22.3 46.0 22.3 43.45 22.3 42.25 23.05 41.2 22.3 42.25 22.3 43.45 22.3 46.0 24.55 46.0 L25.35 45.9 25.45 46.35 27.55 45.4 25.35 45.9 M49.2 29.0 Q45.05 35.75 36.05 40.9 L35.5 41.25 35.45 41.25 30.4 43.95 30.35 43.95 27.55 45.4 30.35 43.95 30.4 43.95 35.45 41.25 35.5 41.25 36.05 40.9 Q45.05 35.75 49.2 29.0 M28.9 46.55 Q29.1 47.0 29.6 47.0 32.6 47.0 35.1 45.25 37.25 43.75 37.25 42.65 37.4 41.35 36.4 41.35 L36.2 41.4 35.65 41.55 34.75 42.15 32.65 43.7 30.45 44.05 30.4 44.05 Q28.8 44.45 28.8 46.05 L28.9 46.55 M26.45 54.1 L22.0 54.75 Q17.65 54.75 16.0 51.6 22.65 47.5 25.3 46.4 L25.45 46.35 Q25.6 46.85 26.1 47.25 27.3 48.25 30.65 48.25 33.65 48.25 35.45 47.0 33.65 48.25 30.65 48.25 27.3 48.25 26.1 47.25 25.6 46.85 25.45 46.35 L25.3 46.4 Q22.65 47.5 16.0 51.6 17.65 54.75 22.0 54.75 L26.45 54.1 M39.95 66.85 Q37.1 67.85 34.35 68.15 L26.9 67.8 26.75 67.8 26.9 67.8 34.35 68.15 Q37.1 67.85 39.95 66.85 M19.8 75.85 L20.45 75.9 Q22.0 75.9 24.95 73.35 L26.95 71.8 Q27.9 71.05 27.9 70.3 27.9 68.95 26.55 68.95 25.05 68.95 22.0 71.55 19.15 74.0 19.15 74.7 L19.15 75.3 19.6 75.75 Q18.65 76.1 18.8 76.75 L19.05 77.5 19.85 77.35 20.2 77.1 20.2 76.0 19.8 75.85 20.2 76.0 20.2 77.1 19.85 77.35 19.05 77.5 18.8 76.75 Q18.65 76.1 19.6 75.75 L19.8 75.85 M14.65 52.6 L13.6 51.9 Q12.85 51.05 12.85 50.05 12.85 48.25 13.6 46.85 12.85 48.25 12.85 50.05 12.85 51.05 13.6 51.9 L14.65 52.6 M7.05 52.65 L6.85 54.6 Q6.85 57.35 8.8 58.35 6.85 57.35 6.85 54.6 L7.05 52.65 M11.35 55.3 Q12.0 54.2 12.0 53.35 12.15 51.35 10.6 51.35 9.6 51.35 8.6 52.7 7.75 53.8 7.75 54.3 L7.8 55.5 Q8.05 56.7 9.1 56.7 10.45 56.7 11.35 55.3 M5.0 55.9 Q2.95 55.9 1.8 58.0 1.0 59.45 1.0 60.65 L1.05 61.35 Q1.25 62.0 1.85 62.0 4.55 62.0 6.0 57.4 6.0 55.9 5.0 55.9 M48.4 54.75 L48.7 54.7 49.0 55.0 49.4 55.1 49.05 53.5 48.3 53.25 46.9 53.1 Q44.5 53.1 43.95 54.1 L43.85 55.65 Q43.85 58.3 44.95 59.2 L45.7 59.2 45.75 59.15 45.85 59.4 Q46.95 60.75 47.6 60.5 L49.0 59.55 Q49.7 58.8 49.7 57.8 49.7 55.8 48.9 55.1 L48.4 54.75 48.9 55.1 Q49.7 55.8 49.7 57.8 49.7 58.8 49.0 59.55 L47.6 60.5 Q46.95 60.75 45.85 59.4 L45.75 59.15 45.75 58.95 45.65 58.9 Q45.3 58.1 45.3 56.9 45.3 54.65 47.7 54.65 L48.4 54.75" fill="#3b270e" fill-rule="evenodd" stroke="none"/>
      <path d="M79.7 16.1 Q79.6 17.3 79.15 17.0 L79.95 18.2 Q93.35 22.9 93.35 31.5 93.35 34.25 91.45 37.75 90.25 39.85 86.45 41.9 L77.8 47.4 74.5 49.05 Q72.5 50.0 71.1 51.05 69.7 52.1 68.8 53.35 67.9 54.6 65.65 56.0 63.4 57.4 61.2 57.6 L58.5 57.75 54.9 59.8 Q51.3 61.05 43.7 65.15 L39.95 66.85 Q37.6 68.9 30.8 71.7 22.45 75.1 19.55 78.5 17.9 78.6 17.35 77.3 L17.25 76.95 Q17.95 72.45 26.75 67.8 L25.35 67.55 23.2 67.4 Q21.25 67.4 19.1 68.1 15.8 69.2 12.8 69.3 M23.05 41.2 L23.25 41.15 M59.85 10.2 Q60.75 7.0 62.35 5.05 L66.95 0.0 Q67.8 0.5 69.0 3.3 L70.55 2.35 71.6 1.7 M66.05 5.1 L63.95 6.35 Q63.1 6.85 61.0 9.05 L59.9 10.25 59.85 10.3 59.9 10.35 58.7 11.6 Q55.6 15.05 54.7 17.0 L52.4 22.05 50.95 25.5 50.55 26.45 51.55 26.65 Q53.2 26.65 55.95 23.0 L60.55 17.9 65.4 13.85 Q68.2 11.75 71.0 11.75 72.7 11.75 74.65 12.95 L77.3 15.0 79.15 17.0 M66.05 5.1 L69.0 3.3 M74.65 12.95 L74.1 13.0 Q73.05 13.35 71.85 15.25 70.6 17.2 70.6 18.4 70.6 20.75 73.35 20.75 L75.95 20.15 M71.7 32.8 Q72.05 32.55 72.5 32.4 L75.0 31.6 Q76.8 30.55 78.4 28.6 81.05 25.3 81.05 21.95 81.05 20.55 80.5 19.2 79.25 18.95 76.85 19.8 L76.4 19.95 M79.95 18.2 L80.5 19.2 M59.8 10.35 L59.85 10.3 59.85 10.25 59.8 10.35 58.7 11.6 M59.85 10.25 L59.85 10.2 M33.65 29.0 Q34.3 28.3 36.2 27.2 38.7 25.75 40.05 25.75 42.25 25.75 42.55 28.05 42.8 30.35 44.1 30.35 L46.35 29.9 49.2 29.0 49.35 28.8 50.25 27.15 50.35 26.9 50.55 26.45 49.55 25.75 Q48.55 24.85 49.0 22.3 49.4 19.7 52.35 15.35 55.95 11.55 59.1 9.4 M58.5 57.75 L61.8 54.45 Q65.15 50.4 64.95 46.2 64.7 41.95 60.1 41.25 64.45 38.5 64.2 36.95 63.9 35.35 60.9 34.05 57.85 32.75 57.1 33.0 56.3 33.25 55.85 34.1 55.4 34.8 56.0 35.5 50.7 33.15 50.25 27.15 M53.8 49.2 Q54.6 49.85 54.65 51.35 54.75 53.9 53.2 53.9 L51.05 53.75 50.7 53.65 Q49.9 53.55 49.6 52.8 M41.6 52.95 L41.9 53.15 Q43.3 54.15 43.3 57.25 43.3 59.15 41.4 59.15 39.9 59.15 38.75 57.4 L38.5 56.9 M36.45 59.45 L37.2 60.25 Q37.95 61.4 37.95 62.85 37.95 66.35 34.85 66.35 32.7 66.35 31.85 65.3 L31.45 64.5 31.35 64.1 31.3 64.0 Q30.95 62.9 30.95 62.15 30.95 60.85 32.55 59.85 L33.85 59.25 M23.1 62.65 L19.5 63.0 Q16.4 63.0 13.7 62.2 L12.95 61.95 12.75 61.9 12.7 61.85 Q9.25 60.6 9.0 58.45 L8.8 58.35 5.4 61.15 Q3.6 63.05 3.2 65.7 M53.8 49.2 Q53.2 48.75 52.25 48.75 49.3 48.75 49.3 51.15 L49.5 52.6 M75.0 31.6 L80.2 30.75 M33.65 29.0 L33.6 29.1 M23.05 41.2 Q22.3 42.25 22.3 43.45 22.3 46.0 24.55 46.0 L25.35 45.9 27.55 45.4 30.35 43.95 30.4 43.95 35.45 41.25 35.5 41.25 36.05 40.9 Q45.05 35.75 49.2 29.0 M25.35 45.9 L25.45 46.35 27.55 45.4 M25.45 46.35 Q25.6 46.85 26.1 47.25 27.3 48.25 30.65 48.25 33.65 48.25 35.45 47.0 M25.45 46.35 L25.3 46.4 Q22.65 47.5 16.0 51.6 17.65 54.75 22.0 54.75 L26.45 54.1 M41.6 52.95 L41.55 52.95 40.2 52.65 Q37.8 52.65 37.8 54.7 37.8 55.15 38.15 56.3 L38.3 56.55 M34.55 59.05 L35.1 59.0 36.1 59.25 M26.75 67.8 L26.9 67.8 34.35 68.15 Q37.1 67.85 39.95 66.85 M19.8 75.85 L20.2 76.0 20.2 77.1 19.85 77.35 19.05 77.5 18.8 76.75 Q18.65 76.1 19.6 75.75 M16.0 51.6 L15.7 51.75 Q15.2 52.05 14.65 52.6 13.7 53.5 12.55 55.15 L9.05 58.15 9.05 58.2 9.1 58.5 9.0 58.45 8.95 58.25 8.8 58.35 Q6.85 57.35 6.85 54.6 L7.05 52.65 M13.6 46.85 Q12.85 48.25 12.85 50.05 12.85 51.05 13.6 51.9 L14.65 52.6 M9.05 58.2 L8.95 58.25 M48.4 54.75 L48.9 55.1 Q49.7 55.8 49.7 57.8 49.7 58.8 49.0 59.55 L47.6 60.5 Q46.95 60.75 45.85 59.4 L45.75 59.15 M45.65 58.9 Q45.3 58.1 45.3 56.9 45.3 54.65 47.7 54.65 L48.4 54.75" fill="none" stroke="#000000" stroke-linecap="round" stroke-linejoin="round" stroke-width="1.0"/>
      <path d="M12.8 69.3 Q6.4 67.65 3.2 65.7 0.45 64.0 0.1 62.05 -0.8 57.75 5.2 53.85 L7.05 52.65 Q11.35 49.75 12.2 48.6 12.85 47.65 13.6 46.85 15.9 44.35 19.2 42.85 20.5 42.25 23.05 41.2 M23.25 41.15 L23.3 41.1 Q25.75 40.0 28.1 37.9 30.4 35.75 33.6 29.1 L33.65 28.95 Q36.9 22.15 38.95 19.65 40.95 17.1 47.05 12.6 48.2 11.65 51.05 10.5 53.85 9.3 55.4 9.05 L58.35 9.15 59.1 9.4 59.85 10.2" fill="none" stroke="#000000" stroke-linecap="round" stroke-linejoin="round" stroke-width="1.0"/>
    </g>
  </defs>
</svg>
