<?xml version="1.0" encoding="UTF-8" standalone="no"?>
<svg xmlns:ffdec="https://www.free-decompiler.com/flash" xmlns:xlink="http://www.w3.org/1999/xlink" ffdec:objectType="shape" height="391.2px" width="1276.8px" xmlns="http://www.w3.org/2000/svg">
  <g transform="matrix(4.0, 0.0, 0.0, 4.0, 2.0, 2.0)">
    <path d="M285.15 16.25 L288.05 16.25 292.9 16.25 288.05 16.25 285.15 16.25 284.0 16.15 283.35 16.15 285.15 16.25 M276.7 21.95 L277.15 21.15 Q279.9 16.55 283.35 16.15 279.9 16.55 277.15 21.15 L276.7 21.95 Q275.8 23.5 275.0 25.55 273.2 30.1 272.3 35.6 271.8 38.5 271.55 41.7 L271.35 45.0 271.35 45.2 271.35 45.25 271.3 48.0 271.3 48.3 271.35 50.2 271.35 50.45 271.5 53.8 Q272.1 63.6 275.0 71.05 L275.35 71.8 286.45 71.75 Q287.85 75.25 289.5 77.35 L290.25 78.25 Q291.5 79.6 292.9 80.2 291.5 79.6 290.25 78.25 L289.5 77.35 Q287.85 75.25 286.45 71.75 L286.2 71.25 Q283.25 63.75 282.65 53.8 L282.55 50.45 282.55 50.2 282.5 48.5 282.5 48.0 282.6 45.2 282.6 45.0 282.75 41.7 Q283.0 38.5 283.5 35.6 284.45 30.25 286.2 25.75 286.95 23.8 287.8 22.25 L281.6 21.6 276.7 21.95 M293.1 16.75 Q291.4 17.4 289.9 19.15 L289.65 19.45 287.8 22.25 289.65 19.45 289.9 19.15 Q291.4 17.4 293.1 16.75 L294.55 16.35 295.2 16.35 Q300.4 16.35 304.15 25.75 306.85 32.65 307.6 41.65 L315.95 41.65 316.25 41.6 Q317.05 41.6 317.6 42.9 L318.15 45.0 318.2 46.1 318.0 48.0 317.6 49.25 316.85 50.4 315.7 50.4 307.85 50.4 Q307.6 62.5 304.15 71.25 300.4 80.65 295.2 80.7 L294.7 80.65 293.6 80.45 292.9 80.2 292.8 80.45 292.1 82.25 Q286.6 96.3 278.85 96.4 L278.7 96.4 Q274.1 96.4 270.25 91.5 267.55 88.1 265.25 82.25 L263.25 76.4 265.25 82.25 Q267.55 88.1 270.25 91.5 274.1 96.4 278.7 96.4 L261.95 96.8 261.65 96.8 261.4 96.8 Q253.6 96.7 248.05 82.65 L246.55 78.45 246.6 78.4 254.75 77.6 263.25 76.4 Q260.0 65.25 259.75 51.0 L259.75 50.45 259.7 48.2 259.7 48.0 259.75 45.0 259.85 41.7 Q260.0 38.25 260.4 35.0 L261.0 30.2 261.55 27.2 Q262.9 20.1 265.25 14.1 267.3 9.0 269.65 5.75 L269.95 5.3 Q272.6 1.7 275.7 0.55 272.6 1.7 269.95 5.3 L269.65 5.75 259.9 5.4 252.8 5.65 Q256.15 1.2 260.1 0.55 L263.1 0.55 275.7 0.55 Q277.15 0.0 278.7 0.0 286.55 0.0 292.1 14.1 L292.9 16.25 293.1 16.75 M288.05 16.25 Q285.1 12.45 281.6 12.45 278.2 12.45 275.45 15.85 273.25 18.45 271.4 23.15 268.2 31.2 267.45 41.7 L267.25 45.0 267.15 48.0 267.15 49.05 267.15 50.45 Q267.35 64.7 271.4 74.9 273.15 79.3 275.2 81.95 278.1 85.6 281.6 85.6 285.7 85.6 289.0 80.45 L292.8 80.45 289.0 80.45 Q285.7 85.6 281.6 85.6 278.1 85.6 275.2 81.95 273.15 79.3 271.4 74.9 267.35 64.7 267.15 50.45 L267.15 49.05 267.15 48.0 267.25 45.0 267.45 41.7 Q268.2 31.2 271.4 23.15 273.25 18.45 275.45 15.85 278.2 12.45 281.6 12.45 285.1 12.45 288.05 16.25 M283.45 80.45 Q280.0 80.15 277.25 75.65 276.25 74.0 275.35 71.8 276.25 74.0 277.25 75.65 280.0 80.15 283.45 80.45 L284.0 80.5 284.5 80.45 283.45 80.45 M289.0 80.45 L284.5 80.45 289.0 80.45 M301.7 32.65 Q299.5 27.05 296.5 26.3 L295.55 26.2 294.2 26.4 Q292.5 27.0 291.05 29.3 293.6 24.0 297.0 24.0 300.95 24.0 303.75 31.1 305.6 35.75 306.25 41.65 L303.9 41.65 Q303.3 36.65 301.7 32.65 303.3 36.65 303.9 41.65 L306.25 41.65 Q305.6 35.75 303.75 31.1 300.95 24.0 297.0 24.0 293.6 24.0 291.05 29.3 292.5 27.0 294.2 26.4 L295.55 26.2 296.5 26.3 Q299.5 27.05 301.7 32.65 M291.05 29.3 L290.25 31.1 Q288.4 35.75 287.75 41.7 L287.5 45.0 287.45 48.0 287.45 48.3 287.45 50.45 Q287.75 59.1 290.25 65.45 L291.4 68.0 Q293.85 72.55 297.0 72.55 300.95 72.55 303.75 65.45 306.25 59.1 306.55 50.4 L307.85 50.4 306.55 50.4 Q306.25 59.1 303.75 65.45 300.95 72.55 297.0 72.55 293.85 72.55 291.4 68.0 L290.25 65.45 Q287.75 59.1 287.45 50.45 L287.45 48.3 287.45 48.0 287.5 45.0 287.75 41.7 Q288.4 35.75 290.25 31.1 L291.05 29.3 M295.25 45.0 Q295.05 45.8 295.1 46.7 L295.2 47.2 295.4 48.0 314.5 48.0 314.3 46.1 314.35 45.0 295.25 45.0 Q295.7 42.8 297.5 41.65 L303.9 41.65 297.5 41.65 Q295.7 42.8 295.25 45.0 M315.7 50.4 Q315.2 50.1 314.85 49.25 314.6 48.7 314.5 48.0 314.6 48.7 314.85 49.25 315.2 50.1 315.7 50.4 M314.35 45.0 Q314.45 43.85 314.85 42.9 315.35 41.85 315.95 41.65 315.35 41.85 314.85 42.9 314.45 43.85 314.35 45.0 M306.25 41.65 L307.6 41.65 306.25 41.65 M291.4 68.0 Q293.25 70.55 295.55 70.6 299.15 70.55 301.7 64.05 304.0 58.3 304.25 50.4 L297.3 50.4 Q296.05 50.25 295.4 48.0 296.05 50.25 297.3 50.4 L304.25 50.4 306.55 50.4 304.25 50.4 Q304.0 58.3 301.7 64.05 299.15 70.55 295.55 70.6 293.25 70.55 291.4 68.0 M242.7 41.75 L242.6 43.6 242.55 45.2 59.25 45.2 Q59.5 42.1 61.25 41.95 L72.2 41.95 75.7 41.95 77.75 41.95 75.7 41.95 72.2 41.95 61.25 41.95 Q59.5 42.1 59.25 45.2 L59.2 45.7 Q59.2 47.0 59.45 48.0 L242.5 48.0 242.5 48.6 242.5 50.45 77.9 50.6 Q77.7 63.45 75.1 73.8 73.9 78.35 72.3 82.45 66.95 96.05 59.5 96.6 L58.9 96.6 58.45 96.6 Q54.15 96.35 50.6 91.9 47.8 88.4 45.45 82.45 L44.7 80.4 45.45 82.45 Q47.8 88.4 50.6 91.9 54.15 96.35 58.45 96.6 L43.05 96.75 41.2 96.75 Q33.9 95.95 28.65 82.65 L28.1 81.2 25.35 81.7 Q19.25 81.7 14.9 72.0 L14.05 69.95 16.5 70.0 24.95 69.7 Q26.05 75.3 27.8 80.3 L28.1 81.2 27.8 80.3 37.4 81.0 42.6 80.6 44.7 80.4 Q40.55 68.75 40.0 53.4 L39.95 51.4 39.95 50.6 39.9 48.4 39.9 48.0 39.95 45.2 40.0 43.75 40.05 41.95 Q40.2 38.8 40.5 35.8 L41.3 29.8 41.9 26.6 Q43.2 20.0 45.45 14.3 47.4 9.4 49.6 6.25 L50.4 5.15 Q53.85 0.75 57.9 0.25 53.85 0.75 50.4 5.15 L49.6 6.25 40.4 5.6 32.85 6.4 Q37.0 0.4 42.1 0.4 L42.5 0.4 57.9 0.25 58.75 0.2 58.9 0.2 Q66.75 0.2 72.3 14.3 74.7 20.3 76.05 27.4 77.35 34.2 77.75 41.95 L242.7 41.75 M75.7 41.95 Q75.1 33.95 73.25 27.4 L71.8 23.05 Q67.7 12.4 61.95 12.4 L60.3 12.65 Q58.0 13.3 56.0 15.8 53.85 18.4 52.1 23.05 48.95 31.2 48.2 41.95 L48.05 45.2 48.0 48.0 48.0 48.8 48.0 50.6 Q48.25 64.5 52.1 74.5 53.85 79.05 55.9 81.65 L56.05 81.85 56.6 82.5 Q59.05 85.15 61.95 85.15 67.7 85.15 71.8 74.5 L72.05 73.8 Q75.65 64.0 75.9 50.6 L77.9 50.6 75.9 50.6 Q75.65 64.0 72.05 73.8 L71.8 74.5 Q67.7 85.15 61.95 85.15 59.05 85.15 56.6 82.5 L56.05 81.85 55.9 81.65 Q53.85 79.05 52.1 74.5 48.25 64.5 48.0 50.6 L48.0 48.8 48.0 48.0 48.05 45.2 48.2 41.95 Q48.95 31.2 52.1 23.05 53.85 18.4 56.0 15.8 58.0 13.3 60.3 12.65 L61.95 12.4 Q67.7 12.4 71.8 23.05 L73.25 27.4 Q75.1 33.95 75.7 41.95 M60.3 12.65 Q64.95 13.8 68.4 22.8 L69.95 27.4 Q71.75 33.95 72.2 41.95 71.75 33.95 69.95 27.4 L68.4 22.8 Q64.95 13.8 60.3 12.65 M28.05 16.1 Q27.15 18.65 26.4 21.35 L21.6 21.2 17.0 21.3 Q20.65 15.6 25.35 15.6 L28.05 16.1 M0.0 45.2 Q0.1 42.95 1.3 42.0 L10.85 42.0 10.65 45.2 0.0 45.2 M0.4 48.0 L10.55 48.0 10.55 48.65 10.6 50.6 2.8 50.6 2.45 50.4 Q0.95 49.5 0.4 48.0 M72.35 50.6 L75.9 50.6 72.35 50.6 Q72.0 63.3 68.4 72.6 L67.95 73.8 Q64.1 82.95 58.9 82.95 L56.6 82.5 58.9 82.95 Q64.1 82.95 67.95 73.8 L68.4 72.6 Q72.0 63.3 72.35 50.6 L61.0 50.6 Q59.85 49.65 59.45 48.0 59.85 49.65 61.0 50.6 L72.35 50.6" fill="#3f3f3f" fill-rule="evenodd" stroke="none"/>
    <path d="M276.7 21.95 L281.6 21.6 287.8 22.25 Q286.95 23.8 286.2 25.75 284.45 30.25 283.5 35.6 L272.3 35.6 Q273.2 30.1 275.0 25.55 275.8 23.5 276.7 21.95 M269.65 5.75 Q267.3 9.0 265.25 14.1 262.9 20.1 261.55 27.2 L244.55 26.7 Q245.85 20.15 248.05 14.5 250.25 9.0 252.8 5.65 L259.9 5.4 269.65 5.75 M261.0 30.2 L260.4 35.0 243.25 35.0 Q243.5 32.55 243.9 30.2 L261.0 30.2 M259.75 51.0 Q260.0 65.25 263.25 76.4 L254.75 77.6 246.6 78.4 246.55 78.4 Q242.8 66.55 242.5 51.0 L259.75 51.0 M286.45 71.75 L275.35 71.8 275.0 71.05 Q272.1 63.6 271.5 53.8 L282.65 53.8 Q283.25 63.75 286.2 71.25 L286.45 71.75 M282.6 45.2 L282.5 48.0 282.5 48.5 282.55 50.2 271.35 50.2 271.3 48.3 271.3 48.0 271.35 45.25 271.35 45.2 282.6 45.2 M49.6 6.25 Q47.4 9.4 45.45 14.3 43.2 20.0 41.9 26.6 L25.15 26.6 Q25.65 23.9 26.4 21.35 25.65 23.9 25.15 26.6 L24.55 29.8 24.15 32.2 24.55 29.8 41.3 29.8 40.5 35.8 23.75 35.8 23.85 34.6 23.75 35.8 23.55 38.0 11.3 38.0 11.9 34.6 23.85 34.6 24.15 32.2 12.5 32.2 Q13.45 28.5 14.9 25.25 15.9 23.0 17.0 21.3 L21.6 21.2 26.4 21.35 Q27.15 18.65 28.05 16.1 L28.65 14.5 Q30.6 9.6 32.85 6.4 L40.4 5.6 49.6 6.25 M39.95 51.4 L40.0 53.4 Q40.55 68.75 44.7 80.4 L42.6 80.6 37.4 81.0 27.8 80.3 Q26.05 75.3 24.95 69.7 L16.5 70.0 14.05 69.95 Q10.85 61.6 10.6 50.6 L10.55 48.65 10.55 48.0 10.6 45.8 23.15 45.8 23.1 48.0 23.1 48.6 23.15 50.6 23.15 51.4 39.95 51.4 M23.15 51.4 Q23.35 61.3 24.95 69.7 23.35 61.3 23.15 51.4" fill="#626262" fill-rule="evenodd" stroke="none"/>
    <path d="M261.55 27.2 L261.0 30.2 243.9 30.2 244.15 28.6 244.55 26.7 261.55 27.2 M260.4 35.0 Q260.0 38.25 259.85 41.7 L259.75 45.0 259.7 48.0 259.7 48.2 259.75 50.45 259.75 51.0 242.5 51.0 242.5 50.45 242.5 48.6 242.5 48.0 242.55 45.2 242.5 48.0 59.45 48.0 Q59.2 47.0 59.2 45.7 L59.25 45.2 242.55 45.2 242.6 43.6 242.7 41.75 Q242.85 38.25 243.25 35.0 L260.4 35.0 M283.5 35.6 Q283.0 38.5 282.75 41.7 L282.6 45.0 282.6 45.2 271.35 45.2 271.35 45.0 271.55 41.7 Q271.8 38.5 272.3 35.6 L283.5 35.6 M282.55 50.2 L282.55 50.45 282.65 53.8 271.5 53.8 271.35 50.45 271.35 50.2 282.55 50.2 M295.4 48.0 L295.2 47.2 295.1 46.7 Q295.05 45.8 295.25 45.0 L314.35 45.0 314.3 46.1 314.5 48.0 295.4 48.0 M41.9 26.6 L41.3 29.8 24.55 29.8 25.15 26.6 41.9 26.6 M40.5 35.8 Q40.2 38.8 40.05 41.95 L40.0 43.75 39.95 45.2 39.9 48.0 39.9 48.4 39.95 50.6 39.95 51.4 23.15 51.4 23.15 50.6 23.1 48.6 23.1 48.0 23.15 45.8 10.6 45.8 10.55 48.0 0.4 48.0 Q0.05 47.05 0.0 45.9 L0.0 45.2 10.65 45.2 10.85 42.0 Q11.0 39.95 11.3 38.0 L23.55 38.0 23.75 35.8 40.5 35.8 M12.5 32.2 L24.15 32.2 23.85 34.6 11.9 34.6 12.45 32.3 12.5 32.2 M10.65 45.2 L10.6 45.8 10.65 45.2 M23.55 38.0 L23.25 42.0 23.15 45.2 23.15 45.8 23.15 45.2 23.25 42.0 23.55 38.0" fill="#898989" fill-rule="evenodd" stroke="none"/>
    <path d="M292.9 16.25 L288.05 16.25 285.15 16.25 283.35 16.15 Q279.9 16.55 277.15 21.15 L276.7 21.95 Q275.8 23.5 275.0 25.55 273.2 30.1 272.3 35.6 271.8 38.5 271.55 41.7 L271.35 45.0 271.35 45.2 M287.8 22.25 L289.65 19.45 289.9 19.15 Q291.4 17.4 293.1 16.75 L292.9 16.25 292.1 14.1 Q286.55 0.0 278.7 0.0 277.15 0.0 275.7 0.55 272.6 1.7 269.95 5.3 L269.65 5.75 Q267.3 9.0 265.25 14.1 262.9 20.1 261.55 27.2 L261.0 30.2 260.4 35.0 Q260.0 38.25 259.85 41.7 L259.75 45.0 259.7 48.0 259.7 48.2 259.75 50.45 259.75 51.0 Q260.0 65.25 263.25 76.4 L265.25 82.25 Q267.55 88.1 270.25 91.5 274.1 96.4 278.7 96.4 L278.85 96.4 Q286.6 96.3 292.1 82.25 L292.8 80.45 289.0 80.45 Q285.7 85.6 281.6 85.6 278.1 85.6 275.2 81.95 273.15 79.3 271.4 74.9 267.35 64.7 267.15 50.45 L267.15 49.05 267.15 48.0 267.25 45.0 267.45 41.7 Q268.2 31.2 271.4 23.15 273.25 18.45 275.45 15.85 278.2 12.45 281.6 12.45 285.1 12.45 288.05 16.25 M285.15 16.25 L284.0 16.15 283.35 16.15 M294.55 16.35 L295.2 16.35 Q300.4 16.35 304.15 25.75 306.85 32.65 307.6 41.65 L315.95 41.65 316.25 41.6 Q317.05 41.6 317.6 42.9 L318.15 45.0 318.2 46.1 318.0 48.0 317.6 49.25 316.85 50.4 316.25 50.6 315.7 50.4 307.85 50.4 Q307.6 62.5 304.15 71.25 300.4 80.65 295.2 80.7 L294.7 80.65 293.6 80.45 292.8 80.45 292.9 80.2 Q291.5 79.6 290.25 78.25 L289.5 77.35 Q287.85 75.25 286.45 71.75 L286.2 71.25 Q283.25 63.75 282.65 53.8 L282.55 50.45 282.55 50.2 282.5 48.5 282.5 48.0 282.6 45.2 282.6 45.0 282.75 41.7 Q283.0 38.5 283.5 35.6 284.45 30.25 286.2 25.75 286.95 23.8 287.8 22.25 M275.35 71.8 Q276.25 74.0 277.25 75.65 280.0 80.15 283.45 80.45 L284.5 80.45 289.0 80.45 M294.55 16.35 L292.9 16.25 M293.1 16.75 L294.55 16.35 M301.7 32.65 Q303.3 36.65 303.9 41.65 L306.25 41.65 Q305.6 35.75 303.75 31.1 300.95 24.0 297.0 24.0 293.6 24.0 291.05 29.3 292.5 27.0 294.2 26.4 L295.55 26.2 296.5 26.3 Q299.5 27.05 301.7 32.65 M307.85 50.4 L306.55 50.4 Q306.25 59.1 303.75 65.45 300.95 72.55 297.0 72.55 293.85 72.55 291.4 68.0 L290.25 65.45 Q287.75 59.1 287.45 50.45 L287.45 48.3 287.45 48.0 287.5 45.0 287.75 41.7 Q288.4 35.75 290.25 31.1 L291.05 29.3 M295.25 45.0 Q295.05 45.8 295.1 46.7 L295.2 47.2 295.4 48.0 Q296.05 50.25 297.3 50.4 L304.25 50.4 306.55 50.4 M314.5 48.0 L314.3 46.1 314.35 45.0 Q314.45 43.85 314.85 42.9 315.35 41.85 315.95 41.65 M295.25 45.0 Q295.7 42.8 297.5 41.65 L303.9 41.65 M307.6 41.65 L306.25 41.65 M314.5 48.0 Q314.6 48.7 314.85 49.25 315.2 50.1 315.7 50.4 L316.85 50.4 M263.1 0.55 L261.5 0.4 260.1 0.55 263.1 0.55 275.7 0.55 M260.1 0.55 Q256.15 1.2 252.8 5.65 250.25 9.0 248.05 14.5 245.85 20.15 244.55 26.7 L244.15 28.6 243.9 30.2 Q243.5 32.55 243.25 35.0 242.85 38.25 242.7 41.75 L77.75 41.95 75.7 41.95 72.2 41.95 61.25 41.95 Q59.5 42.1 59.25 45.2 L59.2 45.7 Q59.2 47.0 59.45 48.0 59.85 49.65 61.0 50.6 L72.35 50.6 Q72.0 63.3 68.4 72.6 L67.95 73.8 Q64.1 82.95 58.9 82.95 L56.6 82.5 56.05 81.85 55.9 81.65 Q53.85 79.05 52.1 74.5 48.25 64.5 48.0 50.6 L48.0 48.8 48.0 48.0 48.05 45.2 48.2 41.95 Q48.95 31.2 52.1 23.05 53.85 18.4 56.0 15.8 58.0 13.3 60.3 12.65 L61.95 12.4 Q67.7 12.4 71.8 23.05 L73.25 27.4 Q75.1 33.95 75.7 41.95 M271.35 50.2 L271.3 48.3 271.3 48.0 271.35 45.25 M271.5 53.8 L271.35 50.45 271.35 50.2 M271.5 53.8 Q272.1 63.6 275.0 71.05 L275.35 71.8 M246.55 78.4 L246.55 78.45 248.05 82.65 Q253.6 96.7 261.4 96.8 L261.65 96.8 261.95 96.8 278.7 96.4 M304.25 50.4 Q304.0 58.3 301.7 64.05 299.15 70.55 295.55 70.6 293.25 70.55 291.4 68.0 M284.5 80.45 L284.0 80.5 283.45 80.45 M293.6 80.45 L292.9 80.2 M242.7 41.75 L242.6 43.6 242.55 45.2 242.5 48.0 242.5 48.6 242.5 50.45 242.5 51.0 Q242.8 66.55 246.55 78.4 M77.9 50.6 L75.9 50.6 Q75.65 64.0 72.05 73.8 L71.8 74.5 Q67.7 85.15 61.95 85.15 59.05 85.15 56.6 82.5 M77.75 41.95 Q77.35 34.2 76.05 27.4 74.7 20.3 72.3 14.3 66.75 0.2 58.9 0.2 L58.75 0.2 57.9 0.25 Q53.85 0.75 50.4 5.15 L49.6 6.25 Q47.4 9.4 45.45 14.3 43.2 20.0 41.9 26.6 L41.3 29.8 40.5 35.8 Q40.2 38.8 40.05 41.95 L40.0 43.75 39.95 45.2 39.9 48.0 39.9 48.4 39.95 50.6 39.95 51.4 40.0 53.4 Q40.55 68.75 44.7 80.4 L45.45 82.45 Q47.8 88.4 50.6 91.9 54.15 96.35 58.45 96.6 L58.9 96.6 59.5 96.6 Q66.95 96.05 72.3 82.45 73.9 78.35 75.1 73.8 77.7 63.45 77.9 50.6 L242.5 50.45 M57.9 0.25 L42.5 0.4 42.1 0.4 Q37.0 0.4 32.85 6.4 30.6 9.6 28.65 14.5 L28.05 16.1 Q27.15 18.65 26.4 21.35 25.65 23.9 25.15 26.6 L24.55 29.8 24.15 32.2 23.85 34.6 23.75 35.8 23.55 38.0 23.25 42.0 23.15 45.2 23.15 45.8 23.1 48.0 23.1 48.6 23.15 50.6 23.15 51.4 Q23.35 61.3 24.95 69.7 26.05 75.3 27.8 80.3 L28.1 81.2 28.65 82.65 Q33.9 95.95 41.2 96.75 L43.05 96.75 58.45 96.6 M72.2 41.95 Q71.75 33.95 69.95 27.4 L68.4 22.8 Q64.95 13.8 60.3 12.65 M28.05 16.1 L25.35 15.6 Q20.65 15.6 17.0 21.3 15.9 23.0 14.9 25.25 13.45 28.5 12.5 32.2 M12.45 32.3 L11.9 34.6 11.3 38.0 Q11.0 39.95 10.85 42.0 L10.65 45.2 10.6 45.8 10.55 48.0 10.55 48.65 10.6 50.6 Q10.85 61.6 14.05 69.95 L14.9 72.0 Q19.25 81.7 25.35 81.7 L28.1 81.2 M0.0 45.2 Q0.1 42.95 1.3 42.0 L10.85 42.0 M0.0 45.2 L0.0 45.9 Q0.05 47.05 0.4 48.0 0.95 49.5 2.45 50.4 L2.8 50.6 10.6 50.6 M75.9 50.6 L72.35 50.6 M41.2 96.75 L42.1 96.8 43.05 96.75" fill="none" stroke="#000000" stroke-linecap="round" stroke-linejoin="round" stroke-width="1.0"/>
  </g>
</svg>
