<?xml version="1.0" encoding="UTF-8" standalone="no"?>
<svg xmlns:ffdec="https://www.free-decompiler.com/flash" xmlns:xlink="http://www.w3.org/1999/xlink" xmlns="http://www.w3.org/2000/svg" viewBox="-3.30 -2.40 110.52 74.36">
  <g transform="matrix(1.0, 0.0, 0.0, 1.0, 52.45, 33.65)">
    <use height="70.3" transform="matrix(1.0, 0.0, 0.0, 1.0, -52.45, -33.65)" width="107.1" xlink:href="#sprite0"/>
  </g>
  <defs>
    <g id="sprite0" transform="matrix(1.0, 0.0, 0.0, 1.0, 42.3, 11.5)">
      <use height="106.7" transform="matrix(0.4974, 0.061, -0.0667, 0.5439, -35.1997, -11.4861)" width="201.0" xlink:href="#sprite1"/>
    </g>
    <g id="sprite1" transform="matrix(1.0, 0.0, 0.0, 1.0, 0.75, 0.35)">
      <use height="106.7" transform="matrix(1.0, 0.0, 0.0, 1.0, -0.75, -0.35)" width="201.0" xlink:href="#shape0"/>
    </g>
    <g id="shape0" transform="matrix(1.0, 0.0, 0.0, 1.0, 0.75, 0.35)">
      <path stroke-width="1.4" vector-effect="non-scaling-stroke" d="M164.45 33.45 L162.0 37.05 161.6 37.05 Q152.95 36.85 152.45 43.5 152.05 48.1 156.85 53.35 160.15 56.95 165.1 59.3 169.0 61.15 173.15 61.5 177.1 61.65 179.75 60.35 182.85 58.45 183.05 54.85 183.15 51.85 181.45 48.9 L181.35 45.95 195.5 57.6 Q180.6 63.1 166.55 73.55 150.1 65.25 126.65 32.0 L127.25 31.05 Q135.95 28.05 140.95 24.7 143.85 22.7 145.5 20.55 L150.25 20.55 164.45 33.45 M82.25 26.3 Q93.5 43.25 110.1 57.15 L105.5 64.1 77.35 28.85 79.5 26.3 82.25 26.3" fill="none" fill-rule="evenodd" stroke="#dfeeff"/>
      <path stroke-width="1.4" vector-effect="non-scaling-stroke" d="M173.65 53.3 Q177.15 35.0 169.3 18.3 180.3 27.5 181.35 45.95 L181.45 48.9 Q181.3 51.3 179.1 52.6 177.25 53.5 174.45 53.4 L173.65 53.3" fill="none" fill-rule="evenodd" stroke="#dfeeff"/>
      <path stroke-width="1.4" vector-effect="non-scaling-stroke" d="M164.45 33.45 Q168.2 26.95 169.3 18.3 177.15 35.0 173.65 53.3 171.1 52.95 168.75 51.85 165.25 50.2 162.9 47.7 159.5 44.0 159.75 40.8 160.0 38.15 162.0 37.05 L164.45 33.45 M166.55 73.55 Q164.8 78.5 162.2 83.0 159.25 88.05 155.3 92.6 145.85 94.75 135.5 92.6 125.55 82.45 119.0 70.55 L109.4 80.2 105.5 64.1 109.4 80.2 103.75 85.85 64.75 75.6 74.7 67.8 80.0 63.6 70.75 36.3 73.55 33.15 77.35 28.85 105.5 64.1 110.1 57.15 Q93.5 43.25 82.25 26.3 L80.9 24.95 86.75 19.05 106.3 41.35 117.75 45.6 126.65 32.0 Q150.1 65.25 166.55 73.55 M117.75 45.6 L110.1 57.15 117.75 45.6 162.2 83.0 117.75 45.6" fill="none" fill-rule="evenodd" stroke="#dfeeff"/>
      <path stroke-width="1.4" vector-effect="non-scaling-stroke" d="M195.5 57.6 L196.05 60.9 169.8 78.05 166.55 104.5 134.25 101.35 112.7 105.4 111.75 105.6 Q107.1 99.15 101.25 95.3 86.2 88.9 68.25 84.6 48.25 76.9 29.0 78.6 L15.0 87.1 0.0 72.1 Q0.25 62.8 8.45 52.1 8.5 57.1 9.0 62.1 L18.0 56.85 Q22.4 67.7 29.75 71.6 L64.75 75.6 103.75 85.85 109.4 80.2 119.0 70.55 Q125.55 82.45 135.5 92.6 145.85 94.75 155.3 92.6 159.25 88.05 162.2 83.0 164.8 78.5 166.55 73.55 180.6 63.1 195.5 57.6 M112.7 105.4 Q112.2 86.6 119.0 70.55 112.2 86.6 112.7 105.4 M15.0 87.1 Q11.4 72.6 18.0 56.85 11.4 72.6 15.0 87.1 M6.0 69.1 L9.0 62.1 6.0 69.1" fill="none" fill-rule="evenodd" stroke="#dfeeff"/>
      <path stroke-width="1.4" vector-effect="non-scaling-stroke" d="M162.0 37.05 Q160.0 38.15 159.75 40.8 159.5 44.0 162.9 47.7 165.25 50.2 168.75 51.85 171.1 52.95 173.65 53.3 L174.45 53.4 Q177.25 53.5 179.1 52.6 181.3 51.3 181.45 48.9 183.15 51.85 183.05 54.85 182.85 58.45 179.75 60.35 177.1 61.65 173.15 61.5 169.0 61.15 165.1 59.3 160.15 56.95 156.85 53.35 152.05 48.1 152.45 43.5 152.95 36.85 161.6 37.05 L162.0 37.05" fill="none" fill-rule="evenodd" stroke="#dfeeff"/>
      <path stroke-width="1.4" vector-effect="non-scaling-stroke" d="M196.05 60.9 L199.5 81.1 199.5 83.1 167.5 104.6 166.55 104.5 169.8 78.05 196.05 60.9" fill="none" fill-rule="evenodd" stroke="#dfeeff"/>
      <path stroke-width="1.4" vector-effect="non-scaling-stroke" d="M118.7 4.05 L122.25 4.3 Q128.55 14.5 140.95 24.7 135.95 28.05 127.25 31.05 L126.65 32.0 117.75 45.6 106.3 41.35 86.75 19.05 Q115.95 16.6 114.5 7.05 115.1 4.25 118.7 4.05 M22.4 32.25 Q19.8 37.4 32.6 43.05 45.1 48.35 51.4 44.85 52.75 47.3 52.05 51.2 47.6 53.15 44.15 51.2 L25.0 43.95 Q17.4 39.7 17.05 35.2 L17.0 34.45 Q17.25 32.35 20.25 31.2 L22.4 32.25 M55.8 62.1 Q57.15 64.55 56.45 68.45 52.0 70.4 48.55 68.45 L29.4 61.2 Q21.8 56.95 21.45 52.45 L21.4 51.7 Q21.65 49.6 24.65 48.45 L26.8 49.5 Q24.2 54.65 37.0 60.3 49.5 65.6 55.8 62.1" fill="none" fill-rule="evenodd" stroke="#dfeeff"/>
      <path stroke-width="1.4" vector-effect="non-scaling-stroke" d="M22.25 4.3 Q69.55 -4.2 118.7 4.05 115.1 4.25 114.5 7.05 115.95 16.6 86.75 19.05 L80.9 24.95 79.5 26.3 77.35 28.85 73.55 33.15 65.75 24.55 Q32.0 23.65 22.25 4.3" fill="none" fill-rule="evenodd" stroke="#dfeeff"/>
      <path stroke-width="1.4" vector-effect="non-scaling-stroke" d="M13.85 16.05 Q14.85 7.0 22.25 4.3 32.0 23.65 65.75 24.55 L73.55 33.15 70.75 36.3 80.0 63.6 74.7 67.8 Q69.5 49.0 55.0 35.3 19.0 28.7 14.15 16.85 L13.85 16.05 M65.75 24.55 L55.0 35.3 65.75 24.55" fill="none" fill-rule="evenodd" stroke="#dfeeff"/>
      <path stroke-width="1.4" vector-effect="non-scaling-stroke" d="M22.4 32.25 Q33.2 37.35 48.4 42.1 50.4 43.1 51.4 44.85 45.1 48.35 32.6 43.05 19.8 37.4 22.4 32.25 M55.8 62.1 Q49.5 65.6 37.0 60.3 24.2 54.65 26.8 49.5 37.6 54.6 52.8 59.35 54.8 60.35 55.8 62.1" fill="none" fill-rule="evenodd" stroke="#dfeeff"/>
      <path stroke-width="1.4" vector-effect="non-scaling-stroke" d="M8.45 52.1 Q8.3 34.6 13.75 17.05 L14.15 16.85 Q19.0 28.7 55.0 35.3 69.5 49.0 74.7 67.8 L64.75 75.6 29.75 71.6 Q22.4 67.7 18.0 56.85 L9.0 62.1 Q8.5 57.1 8.45 52.1 M51.4 44.85 Q50.4 43.1 48.4 42.1 33.2 37.35 22.4 32.25 L20.25 31.2 Q17.25 32.35 17.0 34.45 L17.05 35.2 Q17.4 39.7 25.0 43.95 L44.15 51.2 Q47.6 53.15 52.05 51.2 52.75 47.3 51.4 44.85 M26.8 49.5 L24.65 48.45 Q21.65 49.6 21.4 51.7 L21.45 52.45 Q21.8 56.95 29.4 61.2 L48.55 68.45 Q52.0 70.4 56.45 68.45 57.15 64.55 55.8 62.1 54.8 60.35 52.8 59.35 37.6 54.6 26.8 49.5" fill="none" fill-rule="evenodd" stroke="#dfeeff"/>
      <path stroke-width="1.4" vector-effect="non-scaling-stroke" d="M169.3 18.3 Q168.2 26.95 164.45 33.45 L162.0 37.05 Q160.0 38.15 159.75 40.8 159.5 44.0 162.9 47.7 165.25 50.2 168.75 51.85 171.1 52.95 173.65 53.3 L174.45 53.4 Q177.25 53.5 179.1 52.6 181.3 51.3 181.45 48.9 183.15 51.85 183.05 54.85 182.85 58.45 179.75 60.35 177.1 61.65 173.15 61.5 169.0 61.15 165.1 59.3 160.15 56.95 156.85 53.35 152.05 48.1 152.45 43.5 152.95 36.85 161.6 37.05 L162.0 37.05 M169.3 18.3 Q180.3 27.5 181.35 45.95 L195.5 57.6 196.05 60.9 199.5 81.1 199.5 83.1 167.5 104.6 166.55 104.5 134.25 101.35 112.7 105.4 111.75 105.6 Q107.1 99.15 101.25 95.3 86.2 88.9 68.25 84.6 48.25 76.9 29.0 78.6 L15.0 87.1 0.0 72.1 Q0.25 62.8 8.45 52.1 8.3 34.6 13.75 17.05 L13.85 16.05 Q14.85 7.0 22.25 4.3 32.0 23.65 65.75 24.55 L73.55 33.15 77.35 28.85 79.5 26.3 80.9 24.95 86.75 19.05 Q115.95 16.6 114.5 7.05 115.1 4.25 118.7 4.05 L122.25 4.3 Q128.55 14.5 140.95 24.7 143.85 22.7 145.5 20.55 L150.25 20.55 164.45 33.45 M181.35 45.95 L181.45 48.9 M195.5 57.6 Q180.6 63.1 166.55 73.55 164.8 78.5 162.2 83.0 159.25 88.05 155.3 92.6 145.85 94.75 135.5 92.6 125.55 82.45 119.0 70.55 112.2 86.6 112.7 105.4 M140.95 24.7 Q135.95 28.05 127.25 31.05 L126.65 32.0 Q150.1 65.25 166.55 73.55 M117.75 45.6 L126.65 32.0 M82.25 26.3 Q93.5 43.25 110.1 57.15 L117.75 45.6 M110.1 57.15 L105.5 64.1 M109.4 80.2 L119.0 70.55 M64.75 75.6 L103.75 85.85 109.4 80.2 M73.55 33.15 L70.75 36.3 80.0 63.6 74.7 67.8 64.75 75.6 29.75 71.6 Q22.4 67.7 18.0 56.85 11.4 72.6 15.0 87.1 M13.85 16.05 L14.15 16.85 Q19.0 28.7 55.0 35.3 69.5 49.0 74.7 67.8 M9.0 62.1 L6.0 69.1 M8.45 52.1 Q8.5 57.1 9.0 62.1 L18.0 56.85 M79.5 26.3 L82.25 26.3" fill="none" stroke="#dfeeff" stroke-linecap="round" stroke-linejoin="round" />
      <path stroke-width="1.4" vector-effect="non-scaling-stroke" d="M166.55 104.5 L169.8 78.05 196.05 60.9 M86.75 19.05 L106.3 41.35 117.75 45.6 162.2 83.0 M105.5 64.1 L109.4 80.2 M55.0 35.3 L65.75 24.55 M77.35 28.85 L105.5 64.1 M51.4 44.85 Q50.4 43.1 48.4 42.1 33.2 37.35 22.4 32.25 19.8 37.4 32.6 43.05 45.1 48.35 51.4 44.85 52.75 47.3 52.05 51.2 47.6 53.15 44.15 51.2 L25.0 43.95 Q17.4 39.7 17.05 35.2 L17.0 34.45 Q17.25 32.35 20.25 31.2 L22.4 32.25 M26.8 49.5 L24.65 48.45 Q21.65 49.6 21.4 51.7 L21.45 52.45 Q21.8 56.95 29.4 61.2 L48.55 68.45 Q52.0 70.4 56.45 68.45 57.15 64.55 55.8 62.1 49.5 65.6 37.0 60.3 24.2 54.65 26.8 49.5 37.6 54.6 52.8 59.35 54.8 60.35 55.8 62.1" fill="none" stroke="#dfeeff" stroke-linecap="round" stroke-linejoin="round" />
      <path stroke-width="1.4" vector-effect="non-scaling-stroke" d="M22.25 4.3 Q69.55 -4.2 118.7 4.05" fill="none" stroke="#dfeeff" stroke-linecap="round" stroke-linejoin="round" />
    </g>
  </defs>
</svg>
