<?xml version="1.0" encoding="UTF-8" standalone="no"?>
<svg xmlns:ffdec="https://www.free-decompiler.com/flash" xmlns:xlink="http://www.w3.org/1999/xlink" xmlns="http://www.w3.org/2000/svg" viewBox="-5.19 -5.22 103.58 104.55">
  <g transform="matrix(1.0, 0.0, 0.0, 1.0, 47.65, 44.55)">
    <use height="94.1" transform="matrix(1.0, 0.0, 0.0, 1.0, -47.65, -44.55)" width="93.2" xlink:href="#shape0"/>
  </g>
  <defs>
    <g id="shape0" transform="matrix(1.0, 0.0, 0.0, 1.0, 47.65, 44.55)">
      <path stroke-width="1.4" vector-effect="non-scaling-stroke" d="M-29.3 -38.3 L0.9 -19.35 3.8 -18.25 -5.0 -14.55 7.2 6.5 7.5 19.8 5.25 18.85 4.55 12.45 -10.9 -16.9 -34.0 -28.0 -32.25 -31.6 -34.0 -28.0 -38.45 -30.15 -32.25 -31.6 -29.3 -38.3 M17.0 14.4 L17.3 15.15 20.7 15.8 21.5 20.25 21.45 21.85 20.3 18.25 15.5 17.35 9.75 20.8 15.8 14.1 17.0 14.4 M10.65 26.95 L17.4 22.2 12.6 31.35 10.65 26.95 M25.75 33.05 L28.3 28.8 28.15 31.0 26.3 35.9 25.75 33.05" fill="none" fill-rule="evenodd" stroke="#dfeeff"/>
      <path stroke-width="1.4" vector-effect="non-scaling-stroke" d="M21.5 20.25 L21.75 21.9 21.45 21.85 21.5 20.25 M33.2 37.9 L32.35 46.55 26.8 49.05 33.2 37.9" fill="none" fill-rule="evenodd" stroke="#dfeeff"/>
      <path stroke-width="1.4" vector-effect="non-scaling-stroke" d="M5.25 18.85 L7.5 19.8 9.75 20.8 15.5 17.35 20.3 18.25 21.45 21.85 21.75 21.9 21.7 22.05 23.15 22.35 27.9 23.4 28.3 28.8 25.75 33.05 19.35 31.55 17.4 22.2 10.65 26.95 6.0 24.6 5.25 18.85" fill="none" fill-rule="evenodd" stroke="#dfeeff"/>
      <path stroke-width="1.4" vector-effect="non-scaling-stroke" d="M17.0 14.4 L11.15 -12.7 19.85 -9.8 24.0 22.4 23.15 22.35 21.7 22.05 21.75 21.9 21.5 20.25 20.7 15.8 17.3 15.15 17.0 14.4 M10.45 43.85 L10.05 44.1 5.95 42.8 6.35 42.55 7.4 42.9 6.45 42.55 18.7 33.15 21.4 34.45 10.45 43.85 8.4 43.2 7.4 42.9 8.4 43.2 10.45 43.85" fill="none" fill-rule="evenodd" stroke="#dfeeff"/>
      <path stroke-width="1.4" vector-effect="non-scaling-stroke" d="M3.8 -18.25 L45.05 -6.3 32.0 20.1 29.9 21.75 38.65 -2.1 3.8 -18.25" fill="none" fill-rule="evenodd" stroke="#dfeeff"/>
      <path stroke-width="1.4" vector-effect="non-scaling-stroke" d="M28.15 31.0 L28.3 28.8 29.8 27.1 33.2 37.9 26.8 49.05 28.15 31.0" fill="none" fill-rule="evenodd" stroke="#dfeeff"/>
      <path stroke-width="1.4" vector-effect="non-scaling-stroke" d="M17.4 22.2 L19.35 31.55 12.7 35.65 12.6 31.35 17.4 22.2" fill="none" fill-rule="evenodd" stroke="#dfeeff"/>
      <path stroke-width="1.4" vector-effect="non-scaling-stroke" d="M3.8 -18.25 L0.9 -19.35 -29.3 -38.3 17.65 -44.05 43.5 -29.8 45.05 -6.3 3.8 -18.25" fill="none" fill-rule="evenodd" stroke="#dfeeff"/>
      <path stroke-width="1.4" vector-effect="non-scaling-stroke" d="M7.5 19.8 L7.2 6.5 -5.0 -14.55 3.8 -18.25 38.65 -2.1 29.9 21.75 27.9 23.4 23.15 22.35 24.0 22.4 19.85 -9.8 11.15 -12.7 17.0 14.4 15.8 14.1 9.75 20.8 7.5 19.8" fill="none" fill-rule="evenodd" stroke="#dfeeff"/>
      <path stroke-width="1.4" vector-effect="non-scaling-stroke" d="M6.0 24.6 L10.65 26.95 12.6 31.35 12.7 35.65 19.35 31.55 25.75 33.05 26.3 35.9 28.15 31.0 26.8 49.05 10.45 43.85 21.4 34.45 18.7 33.15 6.45 42.55 -14.95 35.6 6.0 24.6" fill="none" fill-rule="evenodd" stroke="#dfeeff"/>
      <path stroke-width="1.4" vector-effect="non-scaling-stroke" d="M-34.0 -28.0 L-10.9 -16.9 -22.5 8.15 -46.1 -0.55 -38.45 -30.15 -34.0 -28.0" fill="none" fill-rule="evenodd" stroke="#dfeeff"/>
      <path stroke-width="1.4" vector-effect="non-scaling-stroke" d="M-10.9 -16.9 L4.55 12.45 -15.35 18.95 -22.5 8.15 -10.9 -16.9" fill="none" fill-rule="evenodd" stroke="#dfeeff"/>
      <path stroke-width="1.4" vector-effect="non-scaling-stroke" d="M-47.15 23.8 L-43.35 10.4 -22.4 17.5 -16.25 28.6 -23.85 32.0 -47.15 23.8" fill="none" fill-rule="evenodd" stroke="#dfeeff"/>
      <path stroke-width="1.4" vector-effect="non-scaling-stroke" d="M4.55 12.45 L5.25 18.85 6.0 24.6 -14.95 35.6 -18.0 38.65 -45.3 30.3 -47.15 23.8 -23.85 32.0 -16.25 28.6 -22.4 17.5 -43.35 10.4 -46.1 -0.55 -22.5 8.15 -15.35 18.95 4.55 12.45" fill="none" fill-rule="evenodd" stroke="#dfeeff"/>
      <path stroke-width="1.4" vector-effect="non-scaling-stroke" d="M-29.3 -38.3 L0.9 -19.35 3.8 -18.25 45.05 -6.3 43.5 -29.8 17.65 -44.05 -29.3 -38.3 -32.25 -31.6 -34.0 -28.0 -10.9 -16.9 4.55 12.45 5.25 18.85 7.5 19.8 9.75 20.8 15.5 17.35 20.3 18.25 21.45 21.85 21.75 21.9 M29.9 21.75 L32.0 20.1 45.05 -6.3 M23.15 22.35 L27.9 23.4 29.9 21.75 M5.25 18.85 L6.0 24.6 10.65 26.95 17.4 22.2 19.35 31.55 25.75 33.05 28.3 28.8 27.9 23.4 M6.35 42.55 L7.4 42.9 6.45 42.55 -14.95 35.6 -18.0 38.65 -45.3 30.3 -47.15 23.8 -43.35 10.4 -46.1 -0.55 -38.45 -30.15 -32.25 -31.6 M7.4 42.9 L8.4 43.2 10.45 43.85 26.8 49.05 33.2 37.9 32.35 46.55 26.8 49.05 M28.3 28.8 L29.8 27.1 33.2 37.9 M-34.0 -28.0 L-38.45 -30.15" fill="none" stroke="#dfeeff" stroke-linecap="round" stroke-linejoin="round" />
    </g>
    <linearGradient gradientTransform="matrix(0.0191, -0.0077, 0.0107, 0.0265, 28.25, -2.85)" gradientUnits="userSpaceOnUse" id="gradient0" spreadMethod="reflect" x1="-819.2" x2="819.2">
      <stop offset="0.0" stop-color="#333242"/>
      <stop offset="0.49019607843137253" stop-color="#5e5e7a"/>
    </linearGradient>
    <linearGradient gradientTransform="matrix(0.0062, -0.0025, 0.0044, 0.0108, 28.25, 38.05)" gradientUnits="userSpaceOnUse" id="gradient1" spreadMethod="reflect" x1="-819.2" x2="819.2">
      <stop offset="0.0" stop-color="#333242"/>
      <stop offset="0.49019607843137253" stop-color="#5e5e7a"/>
    </linearGradient>
    <linearGradient gradientTransform="matrix(0.0053, -0.0022, 0.0024, 0.006, 15.05, 28.95)" gradientUnits="userSpaceOnUse" id="gradient2" spreadMethod="reflect" x1="-819.2" x2="819.2">
      <stop offset="0.0" stop-color="#333242"/>
      <stop offset="0.49019607843137253" stop-color="#5e5e7a"/>
    </linearGradient>
    <linearGradient gradientTransform="matrix(0.0057, -0.0099, 0.0304, 0.0176, 15.85, -28.15)" gradientUnits="userSpaceOnUse" id="gradient3" spreadMethod="reflect" x1="-819.2" x2="819.2">
      <stop offset="0.0" stop-color="#333242"/>
      <stop offset="1.0" stop-color="#5e5e7a"/>
    </linearGradient>
    <linearGradient gradientTransform="matrix(0.0084, -0.0112, 0.0177, 0.0132, 13.8, 1.45)" gradientUnits="userSpaceOnUse" id="gradient4" spreadMethod="reflect" x1="-819.2" x2="819.2">
      <stop offset="0.0" stop-color="#121226"/>
      <stop offset="1.0" stop-color="#424055"/>
    </linearGradient>
    <linearGradient gradientTransform="matrix(0.0045, -0.0063, 0.0121, 0.0087, 6.85, 35.55)" gradientUnits="userSpaceOnUse" id="gradient5" spreadMethod="reflect" x1="-819.2" x2="819.2">
      <stop offset="0.0" stop-color="#121226"/>
      <stop offset="1.0" stop-color="#424055"/>
    </linearGradient>
    <linearGradient gradientTransform="matrix(0.0065, -0.0112, 0.0219, 0.0126, -25.55, -6.8)" gradientUnits="userSpaceOnUse" id="gradient6" spreadMethod="reflect" x1="-819.2" x2="819.2">
      <stop offset="0.0" stop-color="#272633"/>
      <stop offset="1.0" stop-color="#5e5e7a"/>
    </linearGradient>
    <linearGradient gradientTransform="matrix(0.0089, -0.0051, 0.0109, 0.019, -12.5, 3.45)" gradientUnits="userSpaceOnUse" id="gradient7" spreadMethod="reflect" x1="-819.2" x2="819.2">
      <stop offset="0.0" stop-color="#333242"/>
      <stop offset="0.8235294117647058" stop-color="#5e5e7a"/>
    </linearGradient>
    <linearGradient gradientTransform="matrix(0.0137, -0.0037, 0.0034, 0.0127, -31.7, 21.2)" gradientUnits="userSpaceOnUse" id="gradient8" spreadMethod="reflect" x1="-819.2" x2="819.2">
      <stop offset="0.0" stop-color="#121226"/>
      <stop offset="1.0" stop-color="#424055"/>
    </linearGradient>
    <linearGradient gradientTransform="matrix(-0.0103, 0.0103, -0.0169, -0.0169, -19.25, 18.25)" gradientUnits="userSpaceOnUse" id="gradient9" spreadMethod="reflect" x1="-819.2" x2="819.2">
      <stop offset="0.1803921568627451" stop-color="#1c1b28"/>
      <stop offset="0.8901960784313725" stop-color="#05050c"/>
    </linearGradient>
  </defs>
</svg>
